<svg xmlns="http://www.w3.org/2000/svg" viewBox="0 0 470.77 441.92"><g id="freepik--background-simple--inject-96"><g><path d="M443.96,299.99c-20.14,40.61-55.86,82.72-99.32,90.81-65.67,12.23-80.58,66.85-192.61,46.7-17.47-3.14-33.35-8.01-47.7-14.32-7.71-3.39-14.98-7.21-21.8-11.41C20.56,373.78-5.23,304.85,.87,237.13,8.89,148.06,70.87,113.33,110.78,93.49,150.7,73.64,207.59-16.27,317.88,2.58c16.81,2.88,33.34,7.66,49.03,14.69,35.82,16.03,70.48,45.55,87.75,84.27,1.3,2.91,2.51,5.87,3.65,8.87,22.19,58.77,13.1,134.21-14.36,189.58Z" style="fill:#31D158;"></path><path d="M443.96,299.99c-20.14,40.61-55.86,82.72-99.32,90.81-65.67,12.23-80.58,66.85-192.61,46.7-17.47-3.14-33.35-8.01-47.7-14.32-7.71-3.39-14.98-7.21-21.8-11.41C20.56,373.78-5.23,304.85,.87,237.13,8.89,148.06,70.87,113.33,110.78,93.49,150.7,73.64,207.59-16.27,317.88,2.58c16.81,2.88,33.34,7.66,49.03,14.69,35.82,16.03,70.48,45.55,87.75,84.27,1.3,2.91,2.51,5.87,3.65,8.87,22.19,58.77,13.1,134.21-14.36,189.58Z" style="fill:#fff; opacity: .8;"></path></g></g><g id="freepik--Clouds--inject-96"><g style="opacity: .3;"><path d="M48.15,65.12s168.28,70.49,299.1,87l-20.96-10.16s3.81-20.96-6.35-34.93c-10.16-13.97-26.81-.21-32.39,3.81-5.58,4.02-32.39-75.57-60.96-85.73-28.58-10.16-38.74,30.48-47.63,31.12-8.89,.64-6.99-23.5-16.51-22.86-9.53,.64-12.07,5.08-12.07,5.08,0,0,1.27-31.75-20.32-32.39-21.59-.64-27.94,26.04-39.37,29.85-11.43,3.81-13.34-9.53-20.96-7.62-7.62,1.9-10.16,10.16-17.15,13.34-6.99,3.18-12.07-10.16-20.32-7.62-8.26,2.54-13.34,8.89-13.34,8.89l61.6,24.13-57.79-12.07,25.4,10.16Z" style="fill: none; stroke: #000; stroke-linecap: round; stroke-linejoin: round;"></path><path d="M301.78,209.37s59.99,25.13,106.63,31.01l-7.47-3.62s1.36-7.47-2.26-12.45-9.56-.08-11.55,1.36c-1.99,1.43-11.55-26.94-21.73-30.56-10.19-3.62-13.81,10.87-16.98,11.09-3.17,.23-2.49-8.38-5.89-8.15-3.4,.23-4.3,1.81-4.3,1.81,0,0,.45-11.32-7.24-11.55-7.7-.23-9.96,9.28-14.04,10.64s-4.75-3.4-7.47-2.72-3.62,3.62-6.11,4.75-4.3-3.62-7.24-2.72c-2.94,.91-4.75,3.17-4.75,3.17l21.96,8.6-20.6-4.3,9.06,3.62Z" style="fill: none; stroke: #000; stroke-linecap: round; stroke-linejoin: round;"></path></g></g><g id="freepik--Bushes--inject-96"><g><path d="M44.13,245.45c.78-5.48,5.69-15.32,12.63-16.37,7.35-1.12,12.79,8.26,25.83,17.8,13.04,9.54,9.71-1.12,23.38-4.4,13.67-3.28,15.42,7.62,20.9,11.71,5.67,4.23,9.09-3.88,10.45-6.87,2.67-5.83,5.76-10.58,12.58-12.44,10.53-2.87,28.45,3.1,33.9,16.58,1.64,4.05,.99,10.36,5.15,13.56,6.26,4.81,22.51,6.42,23.48,16.36,.34,3.44-.77,6.07-2.37,8.04-.47,1.14-.83,2.37-.6,3.1,.51,1.6,3.94-.72,6.81,1.85,1.86,1.67,3.16,3.76,3.85,5.04L44.13,245.45Z" style="fill:#31D158;"></path><g><path d="M167.65,250.01s.44,2.06-.51,3.37c-.95,1.31-2.24,1.97-2.24,1.97,0,0-.91-3.32,2.76-5.34Z" style="fill:#fff;"></path><path d="M185.07,272.38s-1.62,.8-3.6,.21c-1.97-.59-3.6-1.61-3.6-1.61,0,0,2.46-1.47,7.2,1.4Z" style="fill:#fff;"></path><path d="M202.22,275.46s-1.62,.8-3.6,.21-3.6-1.61-3.6-1.61c0,0,2.46-1.47,7.2,1.4Z" style="fill:#fff;"></path><path d="M187.46,281.11s-1.97,.19-3.85-.91-3.27-2.47-3.27-2.47c0,0,3.06-.52,7.12,3.38Z" style="fill:#fff;"></path><path d="M204.88,284.41s-1.97,.19-3.85-.91c-1.89-1.1-3.27-2.47-3.27-2.47,0,0,3.06-.52,7.12,3.38Z" style="fill:#fff;"></path><path d="M175.76,278.35s-2.14-.68-3.61-2.34c-1.47-1.65-2.3-3.3-2.3-3.3,0,0,3.43,.9,5.91,5.63Z" style="fill:#fff;"></path><path d="M200.06,291.5s-2.14-.68-3.61-2.34c-1.47-1.65-2.3-3.3-2.3-3.3,0,0,3.43,.9,5.91,5.63Z" style="fill:#fff;"></path><path d="M180.87,256.06s-.5,1.77-2.1,2.35c-1.6,.59-3.26,.53-3.26,.53,0,0,.59-2.94,5.36-2.89Z" style="fill:#fff;"></path><path d="M145.97,243.94s2.12,.93,3.41,2.69c1.29,1.76,1.92,3.43,1.92,3.43,0,0-3.42-1.3-5.33-6.12Z" style="fill:#fff;"></path><path d="M138.54,251.81s2.1,.23,3.83,1.62c1.73,1.4,2.87,2.93,2.87,2.93,0,0-3.31-.16-6.7-4.56Z" style="fill:#fff;"></path><path d="M139.18,263.53s1.52-.93,3.49-.47c1.97,.46,3.63,1.38,3.63,1.38,0,0-2.28,1.68-7.12-.91Z" style="fill:#fff;"></path><path d="M147.33,272.21s.88-1.53,2.67-1.77c1.79-.23,3.51,.13,3.51,.13,0,0-1.22,2.59-6.18,1.63Z" style="fill:#fff;"></path><path d="M151.79,254.88s2.12,.93,3.41,2.69c1.29,1.76,1.92,3.43,1.92,3.43,0,0-3.42-1.3-5.33-6.12Z" style="fill:#fff;"></path><path d="M186.55,262.99s-.96,1.48-2.78,1.64c-1.82,.16-3.54-.27-3.54-.27,0,0,1.34-2.51,6.32-1.37Z" style="fill:#fff;"></path><path d="M156.38,244.41s1.71,1.7,2.13,3.61c.42,1.9,.2,3.41,.2,3.41,0,0-2.86-2.61-2.33-7.02Z" style="fill:#fff;"></path><path d="M162.9,240.83s.96,2.05,.49,3.67c-.48,1.62-1.43,2.66-1.43,2.66,0,0-1.73-3.25,.94-6.33Z" style="fill:#fff;"></path><path d="M176.9,247s-.01,1.97-1.31,2.95c-1.3,.98-2.8,1.31-2.8,1.31,0,0-.19-3.21,4.11-4.26Z" style="fill:#fff;"></path></g><g><path d="M115.49,249.05s.25,1.2-.3,1.96c-.55,.76-1.3,1.15-1.3,1.15,0,0-.53-1.93,1.6-3.1Z" style="fill:#fff;"></path><path d="M125.6,262.03s-.94,.46-2.09,.12c-1.15-.34-2.09-.94-2.09-.94,0,0,1.43-.85,4.18,.81Z" style="fill:#fff;"></path><path d="M127,267.1s-1.14,.11-2.24-.53-1.9-1.44-1.9-1.44c0,0,1.78-.3,4.13,1.96Z" style="fill:#fff;"></path><path d="M120.2,265.5s-1.24-.4-2.1-1.36c-.86-.96-1.33-1.91-1.33-1.91,0,0,1.99,.52,3.43,3.27Z" style="fill:#fff;"></path><path d="M123.17,252.56s-.29,1.03-1.22,1.37c-.93,.34-1.89,.31-1.89,.31,0,0,.34-1.71,3.11-1.68Z" style="fill:#fff;"></path><path d="M102.9,245.52s1.23,.54,1.98,1.56c.75,1.02,1.12,1.99,1.12,1.99,0,0-1.99-.75-3.1-3.55Z" style="fill:#fff;"></path><path d="M98.59,250.09s1.22,.13,2.22,.94c1,.81,1.67,1.7,1.67,1.7,0,0-1.92-.09-3.89-2.65Z" style="fill:#fff;"></path><path d="M98.96,256.89s.88-.54,2.03-.28,2.11,.8,2.11,.8c0,0-1.32,.97-4.14-.53Z" style="fill:#fff;"></path><path d="M103.69,261.94s.51-.89,1.55-1.02c1.04-.14,2.04,.08,2.04,.08,0,0-.71,1.5-3.59,.95Z" style="fill:#fff;"></path><path d="M106.28,251.87s1.23,.54,1.98,1.56c.75,1.02,1.12,1.99,1.12,1.99,0,0-1.99-.75-3.1-3.55Z" style="fill:#fff;"></path><path d="M126.47,256.58s-.56,.86-1.61,.95c-1.06,.09-2.06-.16-2.06-.16,0,0,.78-1.46,3.67-.79Z" style="fill:#fff;"></path><path d="M108.95,245.79s.99,.99,1.24,2.09c.24,1.1,.12,1.98,.12,1.98,0,0-1.66-1.51-1.35-4.08Z" style="fill:#fff;"></path><path d="M112.73,243.71s.56,1.19,.28,2.13c-.28,.94-.83,1.54-.83,1.54,0,0-1-1.89,.55-3.68Z" style="fill:#fff;"></path><path d="M120.86,247.3s0,1.14-.76,1.71c-.75,.57-1.63,.76-1.63,.76,0,0-.11-1.87,2.39-2.47Z" style="fill:#fff;"></path></g><g><path d="M64.83,237.87s.25,1.2-.3,1.96c-.55,.76-1.3,1.15-1.3,1.15,0,0-.53-1.93,1.6-3.1Z" style="fill:#fff;"></path><path d="M74.95,250.86s-.94,.46-2.09,.12c-1.15-.34-2.09-.94-2.09-.94,0,0,1.43-.85,4.18,.81Z" style="fill:#fff;"></path><path d="M72.51,241.38s-.29,1.03-1.22,1.37c-.93,.34-1.89,.31-1.89,.31,0,0,.34-1.71,3.11-1.68Z" style="fill:#fff;"></path><path d="M52.24,234.34s1.23,.54,1.98,1.56c.75,1.02,1.12,1.99,1.12,1.99,0,0-1.99-.75-3.1-3.55Z" style="fill:#fff;"></path><path d="M47.93,238.91s1.22,.13,2.22,.94c1,.81,1.67,1.7,1.67,1.7,0,0-1.92-.09-3.89-2.65Z" style="fill:#fff;"></path><path d="M48.3,245.72s.88-.54,2.03-.28c1.14,.27,2.11,.8,2.11,.8,0,0-1.32,.97-4.14-.53Z" style="fill:#fff;"></path><path d="M55.62,240.69s1.23,.54,1.98,1.56c.75,1.02,1.12,1.99,1.12,1.99,0,0-1.99-.75-3.1-3.55Z" style="fill:#fff;"></path><path d="M75.81,245.41s-.56,.86-1.61,.95c-1.06,.09-2.06-.16-2.06-.16,0,0,.78-1.46,3.67-.79Z" style="fill:#fff;"></path><path d="M58.29,234.62s.99,.99,1.24,2.09c.24,1.1,.12,1.98,.12,1.98,0,0-1.66-1.51-1.35-4.08Z" style="fill:#fff;"></path><path d="M62.08,232.54s.56,1.19,.28,2.13c-.28,.94-.83,1.54-.83,1.54,0,0-1-1.89,.55-3.68Z" style="fill:#fff;"></path><path d="M70.21,236.12s0,1.14-.76,1.71-1.63,.76-1.63,.76c0,0-.11-1.87,2.39-2.47Z" style="fill:#fff;"></path></g><g><polygon points="171.75 284.57 167.09 283.14 169.21 274.15 159.58 264.21 170.53 272.39 173.78 259.64 170.97 283.85 177.79 283.53 190.65 282.89 176.46 285.77 171.75 284.57" style="fill:#a1a1a1;"></polygon><polygon points="114.01 253.86 120.2 268.28 117.58 267.72 116.03 263.63 109.04 260.33 115.53 261.07 114.01 253.86" style="fill:#a1a1a1;"></polygon><polygon points="67.64 245.67 63.93 251.28 63.32 247.44 67.64 245.67" style="fill:#a1a1a1;"></polygon><polygon points="60.76 250.55 60.27 245.49 55.61 240.77 60.02 242.84 59.32 235.65 63.93 251.28 62.36 251.04 60.76 250.55" style="fill:#a1a1a1;"></polygon></g></g><g><g><path d="M377.29,275.16l12.83,.94,58.65,13.77c.83-2.81,.94-6.1-.65-9.64-4.73-10.54-22.03-5.31-30.27-7.92-5.48-1.73-7.19-8.97-10.39-12.73-10.66-12.52-31.32-11.38-41.06-3.68-6.31,4.99-7.7,11.56-8.25,19.14-.15,2.09-.36,6.08-1.68,8.97l20.84-8.85Z" style="fill:#31D158;"></path><path d="M281.28,306.2h4.3l20.32,1.6,38.93-18.84,4.68-1.99c-6.96-2.47-12.87-13.05-25.41-3.75-12.81,9.51-5.39,19.83-22.37,14.93-16.99-4.9-26.09-12.9-33.23-8.5-4.75,2.93-6.81,10.25-7.18,16.55h19.95Z" style="fill:#31D158;"></path></g><g><path d="M390.32,264.95s1.22,2.09,.74,3.94c-.49,1.85-1.56,3.14-1.56,3.14,0,0-2.18-3.27,.83-7.08Z" style="fill:#fff;"></path><path d="M435.4,278.11s-1.37,1.58-3.62,1.78c-2.25,.2-4.31-.22-4.31-.22,0,0,1.98-2.68,7.93-1.56Z" style="fill:#fff;"></path><path d="M441.49,286.83s-1.95,1.06-4.3,.66-4.29-1.32-4.29-1.32c0,0,2.95-1.89,8.59,.66Z" style="fill:#fff;"></path><path d="M406.18,265.92s.15,2.16-1.27,3.5c-1.42,1.34-3.15,1.99-3.15,1.99,0,0-.49-3.49,4.42-5.49Z" style="fill:#fff;"></path><path d="M365.76,267.59s2.52,.11,4.52,1.49c1.99,1.39,3.26,2.96,3.26,2.96,0,0-4,.05-7.78-4.45Z" style="fill:#fff;"></path><path d="M414.62,271.11s-.43,2.04-2.24,3c-1.81,.96-3.74,1.23-3.74,1.23,0,0,.43-3.34,5.98-4.23Z" style="fill:#fff;"></path><path d="M376.64,263.63s2.39,1.14,3.54,3.06c1.15,1.92,1.49,3.68,1.49,3.68,0,0-3.92-1.64-5.03-6.74Z" style="fill:#fff;"></path><path d="M381.99,256.87s1.76,1.85,1.88,3.84c.12,1.99-.47,3.55-.47,3.55,0,0-3-2.84-1.41-7.39Z" style="fill:#fff;"></path><path d="M398.7,257.63s.72,2.18-.24,3.82c-.96,1.64-2.39,2.65-2.39,2.65,0,0-1.4-3.46,2.62-6.47Z" style="fill:#fff;"></path></g><g><path d="M336.36,286.36s.71,1.21,.43,2.29c-.28,1.08-.91,1.83-.91,1.83,0,0-1.27-1.9,.48-4.11Z" style="fill:#fff;"></path><path d="M345.57,286.92s.09,1.26-.74,2.03c-.83,.78-1.83,1.16-1.83,1.16,0,0-.29-2.03,2.57-3.19Z" style="fill:#fff;"></path><path d="M322.1,287.89s1.47,.06,2.62,.87c1.16,.8,1.89,1.72,1.89,1.72,0,0-2.32,.03-4.52-2.58Z" style="fill:#fff;"></path><path d="M319.39,294.79s1.3-.38,2.64,.08c1.34,.46,2.35,1.16,2.35,1.16,0,0-2.01,.73-4.99-1.24Z" style="fill:#fff;"></path><path d="M327.96,293.44s1.47,.06,2.62,.87c1.16,.8,1.89,1.72,1.89,1.72,0,0-2.32,.03-4.52-2.58Z" style="fill:#fff;"></path><path d="M328.42,285.59s1.39,.66,2.06,1.78,.86,2.14,.86,2.14c0,0-2.28-.95-2.92-3.91Z" style="fill:#fff;"></path><path d="M331.53,281.67s1.02,1.07,1.09,2.23c.07,1.16-.27,2.06-.27,2.06,0,0-1.74-1.65-.82-4.29Z" style="fill:#fff;"></path><path d="M341.22,282.11s.42,1.26-.14,2.22c-.56,.95-1.39,1.54-1.39,1.54,0,0-.81-2.01,1.52-3.76Z" style="fill:#fff;"></path></g><g><path d="M280.11,295.87s.71,1.21,.43,2.29c-.28,1.08-.91,1.83-.91,1.83,0,0-1.27-1.9,.48-4.11Z" style="fill:#fff;"></path><path d="M295.38,305.83s-.79,.92-2.1,1.03c-1.31,.12-2.5-.13-2.5-.13,0,0,1.15-1.56,4.6-.9Z" style="fill:#fff;"></path><path d="M289.32,296.43s.09,1.26-.74,2.03c-.83,.78-1.83,1.16-1.83,1.16,0,0-.29-2.03,2.57-3.19Z" style="fill:#fff;"></path><path d="M265.85,297.4s1.47,.06,2.62,.87c1.16,.8,1.89,1.72,1.89,1.72,0,0-2.32,.03-4.52-2.58Z" style="fill:#fff;"></path><path d="M263.14,304.3s1.3-.38,2.64,.08c1.34,.46,2.35,1.16,2.35,1.16,0,0-2.01,.73-4.99-1.24Z" style="fill:#fff;"></path><path d="M271.71,302.95s1.47,.06,2.62,.87c1.16,.8,1.89,1.72,1.89,1.72,0,0-2.32,.03-4.52-2.58Z" style="fill:#fff;"></path><path d="M294.22,299.45s-.25,1.19-1.3,1.74c-1.05,.56-2.17,.71-2.17,.71,0,0,.25-1.94,3.47-2.46Z" style="fill:#fff;"></path><path d="M272.17,295.1s1.39,.66,2.06,1.78c.67,1.11,.86,2.14,.86,2.14,0,0-2.28-.95-2.92-3.91Z" style="fill:#fff;"></path><path d="M275.28,291.17s1.02,1.07,1.09,2.23c.07,1.16-.27,2.06-.27,2.06,0,0-1.74-1.65-.82-4.29Z" style="fill:#fff;"></path><path d="M284.97,291.62s.42,1.26-.14,2.22c-.56,.95-1.39,1.54-1.39,1.54,0,0-.81-2.01,1.52-3.76Z" style="fill:#fff;"></path></g></g></g><g id="freepik--Trees--inject-96"><g><path d="M165.93,191.23c0,26.53-15.7,48.04-35.06,48.04s-35.06-21.51-35.06-48.04,15.7-117.73,35.06-117.73,35.06,91.19,35.06,117.73Z" style="fill:#31D158;"></path><path d="M165.93,191.23c0,26.53-15.7,48.04-35.06,48.04s-35.06-21.51-35.06-48.04,15.7-117.73,35.06-117.73,35.06,91.19,35.06,117.73Z" style="fill:#fff; opacity: .5;"></path><polygon points="111.93 193.61 123.11 197.52 128.65 205.04 127.68 228.1 121.24 223.73 127.48 232.87 127.5 271.46 131.84 273.12 131.96 215.35 150.53 205.11 139.91 209.04 142.04 202.65 136.97 210.13 131.9 212 131.54 191.02 149.98 166.51 140.1 176.4 141.77 169.53 137.04 179.45 131.44 185.06 130.87 152.28 128.86 200.09 111.38 181.57 120.98 194.62 111.93 193.61" style="fill:#999;"></polygon><g><path d="M150.16,152.38s.32,3.22-1.44,5.59-4.94,2.98-4.94,2.98c0,0-.32-3.22,1.44-5.59,1.76-2.36,4.94-2.98,4.94-2.98Z" style="fill:#fff;"></path><path d="M160.72,167.23s.32,3.22-1.44,5.59c-1.76,2.36-4.94,2.98-4.94,2.98,0,0-.32-3.22,1.44-5.59,1.76-2.36,4.94-2.98,4.94-2.98Z" style="fill:#fff;"></path><path d="M160.72,196.13s-.78,3.14-3.23,4.78c-2.45,1.63-5.65,1.14-5.65,1.14,0,0,.78-3.14,3.23-4.78,2.45-1.63,5.65-1.14,5.65-1.14Z" style="fill:#fff;"></path><path d="M102.69,196.13s.78,3.14,3.23,4.78c2.45,1.63,5.65,1.14,5.65,1.14,0,0-.78-3.14-3.23-4.78-2.45-1.63-5.65-1.14-5.65-1.14Z" style="fill:#fff;"></path><path d="M148.51,184.13s.32,3.22-1.44,5.59c-1.76,2.36-4.94,2.98-4.94,2.98,0,0-.32-3.22,1.44-5.59,1.76-2.36,4.94-2.98,4.94-2.98Z" style="fill:#fff;"></path><path d="M145.78,136.23s.32,3.22-1.44,5.59c-1.76,2.36-4.94,2.98-4.94,2.98,0,0-.32-3.22,1.44-5.59,1.76-2.36,4.94-2.98,4.94-2.98Z" style="fill:#fff;"></path><path d="M139.48,148.55s.32,3.22-1.44,5.59c-1.76,2.36-4.94,2.98-4.94,2.98,0,0-.32-3.22,1.44-5.59,1.76-2.36,4.94-2.98,4.94-2.98Z" style="fill:#fff;"></path><path d="M154.43,139.58s.32,3.22-1.44,5.59c-1.76,2.36-4.94,2.98-4.94,2.98,0,0-.32-3.22,1.44-5.59,1.76-2.36,4.94-2.98,4.94-2.98Z" style="fill:#fff;"></path><path d="M105.86,139.58s-.32,3.22,1.44,5.59c1.76,2.36,4.94,2.98,4.94,2.98,0,0,.32-3.22-1.44-5.59-1.76-2.36-4.94-2.98-4.94-2.98Z" style="fill:#fff;"></path><path d="M147.15,121.17s.32,3.22-1.44,5.59-4.94,2.98-4.94,2.98c0,0-.32-3.22,1.44-5.59,1.76-2.36,4.94-2.98,4.94-2.98Z" style="fill:#fff;"></path><path d="M144.05,105.18s1.12,3.04,.01,5.77c-1.11,2.73-4.03,4.12-4.03,4.12,0,0-1.12-3.04-.01-5.77,1.11-2.73,4.03-4.12,4.03-4.12Z" style="fill:#fff;"></path><path d="M121.88,101s2.87,1.5,3.87,4.27c1.01,2.77-.23,5.76-.23,5.76,0,0-2.87-1.5-3.87-4.27-1.01-2.77,.23-5.76,.23-5.76Z" style="fill:#fff;"></path><path d="M132.22,120.13s2.04,2.51,1.87,5.45c-.17,2.94-2.49,5.2-2.49,5.2,0,0-2.04-2.51-1.87-5.45,.17-2.94,2.49-5.2,2.49-5.2Z" style="fill:#fff;"></path><path d="M131.67,91.66s2.04,2.51,1.87,5.45c-.17,2.94-2.49,5.2-2.49,5.2,0,0-2.04-2.51-1.87-5.45,.17-2.94,2.49-5.2,2.49-5.2Z" style="fill:#fff;"></path><path d="M108.47,152.38s-.32,3.22,1.44,5.59,4.94,2.98,4.94,2.98c0,0,.32-3.22-1.44-5.59-1.76-2.36-4.94-2.98-4.94-2.98Z" style="fill:#fff;"></path><path d="M102.45,169.9s-.32,3.22,1.44,5.59c1.76,2.36,4.94,2.98,4.94,2.98,0,0,.32-3.22-1.44-5.59-1.76-2.36-4.94-2.98-4.94-2.98Z" style="fill:#fff;"></path><path d="M118.43,176.26s-.32,3.22,1.44,5.59c1.76,2.36,4.94,2.98,4.94,2.98,0,0,.32-3.22-1.44-5.59s-4.94-2.98-4.94-2.98Z" style="fill:#fff;"></path><path d="M122.8,151.98s-1.23,2.99-.22,5.76c1.01,2.77,3.88,4.27,3.88,4.27,0,0,1.23-2.99,.22-5.76-1.01-2.77-3.88-4.27-3.88-4.27Z" style="fill:#fff;"></path><path d="M111.48,216.58s3.24,.06,5.45-1.89c2.21-1.95,2.56-5.17,2.56-5.17,0,0-3.24-.06-5.45,1.89-2.21,1.95-2.56,5.17-2.56,5.17Z" style="fill:#fff;"></path><path d="M142.54,213.04s.88,3.12,3.38,4.67c2.5,1.55,5.69,.96,5.69,.96,0,0-.88-3.12-3.38-4.67-2.5-1.55-5.69-.96-5.69-.96Z" style="fill:#fff;"></path><path d="M115.1,136.23s-.32,3.22,1.44,5.59c1.76,2.36,4.94,2.98,4.94,2.98,0,0,.32-3.22-1.44-5.59-1.76-2.36-4.94-2.98-4.94-2.98Z" style="fill:#fff;"></path><path d="M115.04,121.99s-.32,3.22,1.44,5.59,4.94,2.98,4.94,2.98c0,0,.32-3.22-1.44-5.59-1.76-2.36-4.94-2.98-4.94-2.98Z" style="fill:#fff;"></path></g></g><g><path d="M242.08,228.63c0,26.53-15.7,48.04-35.06,48.04s-35.06-21.51-35.06-48.04,15.7-117.73,35.06-117.73,35.06,91.19,35.06,117.73Z" style="fill:#31D158;"></path><path d="M242.08,228.63c0,26.53-15.7,48.04-35.06,48.04s-35.06-21.51-35.06-48.04,15.7-117.73,35.06-117.73,35.06,91.19,35.06,117.73Z" style="fill:#fff; opacity: .5;"></path><polygon points="188.08 231.01 199.27 234.91 204.8 242.44 203.84 265.49 197.39 261.12 203.64 270.27 203.51 293.82 208.67 295.54 208.11 252.74 226.68 242.51 216.06 246.43 218.19 240.04 213.12 247.52 208.05 249.4 207.69 228.41 226.13 203.91 216.25 213.79 217.92 206.92 213.19 216.85 207.59 222.46 207.02 189.67 205.01 237.49 187.54 218.97 197.14 232.02 188.08 231.01" style="fill:#999;"></polygon><g><path d="M226.31,189.77s.32,3.22-1.44,5.59c-1.76,2.36-4.94,2.98-4.94,2.98,0,0-.32-3.22,1.44-5.59,1.76-2.36,4.94-2.98,4.94-2.98Z" style="fill:#fff;"></path><path d="M236.88,204.62s.32,3.22-1.44,5.59c-1.76,2.36-4.94,2.98-4.94,2.98,0,0-.32-3.22,1.44-5.59s4.94-2.98,4.94-2.98Z" style="fill:#fff;"></path><path d="M236.87,233.53s-.78,3.14-3.23,4.78c-2.45,1.63-5.65,1.14-5.65,1.14,0,0,.78-3.14,3.23-4.78,2.45-1.63,5.65-1.14,5.65-1.14Z" style="fill:#fff;"></path><path d="M178.84,233.53s.78,3.14,3.23,4.78c2.45,1.63,5.65,1.14,5.65,1.14,0,0-.78-3.14-3.23-4.78-2.45-1.63-5.65-1.14-5.65-1.14Z" style="fill:#fff;"></path><path d="M224.67,221.53s.32,3.22-1.44,5.59c-1.76,2.36-4.94,2.98-4.94,2.98,0,0-.32-3.22,1.44-5.59,1.76-2.36,4.94-2.98,4.94-2.98Z" style="fill:#fff;"></path><path d="M221.93,173.62s.32,3.22-1.44,5.59c-1.76,2.36-4.94,2.98-4.94,2.98,0,0-.32-3.22,1.44-5.59,1.76-2.36,4.94-2.98,4.94-2.98Z" style="fill:#fff;"></path><path d="M215.63,185.94s.32,3.22-1.44,5.59c-1.76,2.36-4.94,2.98-4.94,2.98,0,0-.32-3.22,1.44-5.59,1.76-2.36,4.94-2.98,4.94-2.98Z" style="fill:#fff;"></path><path d="M230.58,176.97s.32,3.22-1.44,5.59c-1.76,2.36-4.94,2.98-4.94,2.98,0,0-.32-3.22,1.44-5.59,1.76-2.36,4.94-2.98,4.94-2.98Z" style="fill:#fff;"></path><path d="M182.01,176.97s-.32,3.22,1.44,5.59,4.94,2.98,4.94,2.98c0,0,.32-3.22-1.44-5.59-1.76-2.36-4.94-2.98-4.94-2.98Z" style="fill:#fff;"></path><path d="M223.3,158.57s.32,3.22-1.44,5.59c-1.76,2.36-4.94,2.98-4.94,2.98,0,0-.32-3.22,1.44-5.59,1.76-2.36,4.94-2.98,4.94-2.98Z" style="fill:#fff;"></path><path d="M220.2,142.58s1.12,3.04,.01,5.77c-1.11,2.73-4.03,4.12-4.03,4.12,0,0-1.12-3.04-.01-5.77,1.11-2.73,4.03-4.12,4.03-4.12Z" style="fill:#fff;"></path><path d="M198.03,138.4s2.87,1.5,3.87,4.27c1.01,2.77-.23,5.76-.23,5.76,0,0-2.87-1.5-3.87-4.27-1.01-2.77,.23-5.76,.23-5.76Z" style="fill:#fff;"></path><path d="M208.37,157.52s2.04,2.51,1.87,5.45c-.17,2.94-2.49,5.2-2.49,5.2,0,0-2.04-2.51-1.87-5.45,.17-2.94,2.49-5.2,2.49-5.2Z" style="fill:#fff;"></path><path d="M207.82,129.05s2.04,2.51,1.87,5.45c-.17,2.94-2.49,5.2-2.49,5.2,0,0-2.04-2.51-1.87-5.45s2.49-5.2,2.49-5.2Z" style="fill:#fff;"></path><path d="M184.62,189.77s-.32,3.22,1.44,5.59c1.76,2.36,4.94,2.98,4.94,2.98,0,0,.32-3.22-1.44-5.59-1.76-2.36-4.94-2.98-4.94-2.98Z" style="fill:#fff;"></path><path d="M178.6,207.29s-.32,3.22,1.44,5.59c1.76,2.36,4.94,2.98,4.94,2.98,0,0,.32-3.22-1.44-5.59-1.76-2.36-4.94-2.98-4.94-2.98Z" style="fill:#fff;"></path><path d="M194.59,213.65s-.32,3.22,1.44,5.59c1.76,2.36,4.94,2.98,4.94,2.98,0,0,.32-3.22-1.44-5.59-1.76-2.36-4.94-2.98-4.94-2.98Z" style="fill:#fff;"></path><path d="M198.96,189.38s-1.23,2.99-.22,5.76c1.01,2.77,3.88,4.27,3.88,4.27,0,0,1.23-2.99,.22-5.76-1.01-2.77-3.88-4.27-3.88-4.27Z" style="fill:#fff;"></path><path d="M187.64,253.97s3.24,.06,5.45-1.89c2.21-1.95,2.56-5.17,2.56-5.17,0,0-3.24-.06-5.45,1.89-2.21,1.95-2.56,5.17-2.56,5.17Z" style="fill:#fff;"></path><path d="M218.69,250.43s.88,3.12,3.38,4.67c2.5,1.55,5.69,.96,5.69,.96,0,0-.88-3.12-3.38-4.67-2.5-1.55-5.69-.96-5.69-.96Z" style="fill:#fff;"></path><path d="M191.25,173.62s-.32,3.22,1.44,5.59c1.76,2.36,4.94,2.98,4.94,2.98,0,0,.32-3.22-1.44-5.59-1.76-2.36-4.94-2.98-4.94-2.98Z" style="fill:#fff;"></path><path d="M191.19,159.39s-.32,3.22,1.44,5.59c1.76,2.36,4.94,2.98,4.94,2.98,0,0,.32-3.22-1.44-5.59-1.76-2.36-4.94-2.98-4.94-2.98Z" style="fill:#fff;"></path></g></g><g><path d="M90.32,210.07c0,17.07-10.1,30.9-22.55,30.9s-22.55-13.84-22.55-30.9,10.1-75.73,22.55-75.73,22.55,58.66,22.55,75.73Z" style="fill:#31D158;"></path><path d="M90.32,210.07c0,17.07-10.1,30.9-22.55,30.9s-22.55-13.84-22.55-30.9,10.1-75.73,22.55-75.73,22.55,58.66,22.55,75.73Z" style="fill:#fff; opacity: .5;"></path><polygon points="55.58 211.6 62.78 214.11 66.34 218.95 65.72 233.78 61.57 230.97 65.59 236.85 65.51 252 68.83 253.11 68.47 225.58 80.41 219 73.58 221.52 74.95 217.41 71.69 222.22 68.43 223.43 68.2 209.93 80.06 194.17 73.7 200.53 74.78 196.11 71.74 202.49 68.13 206.1 67.77 185.01 66.47 215.77 55.23 203.85 61.41 212.25 55.58 211.6" style="fill:#999;"></polygon><g><path d="M80.17,185.08s.21,2.07-.92,3.59c-1.13,1.52-3.18,1.91-3.18,1.91,0,0-.21-2.07,.92-3.59,1.13-1.52,3.18-1.92,3.18-1.92Z" style="fill:#fff;"></path><path d="M86.97,194.63s.21,2.07-.92,3.59c-1.13,1.52-3.18,1.91-3.18,1.91,0,0-.21-2.07,.92-3.59s3.18-1.92,3.18-1.92Z" style="fill:#fff;"></path><path d="M86.97,213.22s-.5,2.02-2.08,3.07c-1.58,1.05-3.64,.73-3.64,.73,0,0,.5-2.02,2.08-3.07,1.58-1.05,3.64-.73,3.64-.73Z" style="fill:#fff;"></path><path d="M49.64,213.22s.5,2.02,2.08,3.07c1.58,1.05,3.64,.73,3.64,.73,0,0-.5-2.02-2.08-3.07-1.58-1.05-3.64-.73-3.64-.73Z" style="fill:#fff;"></path><path d="M79.12,205.5s.21,2.07-.92,3.59c-1.13,1.52-3.18,1.92-3.18,1.92,0,0-.21-2.07,.92-3.59,1.13-1.52,3.18-1.92,3.18-1.92Z" style="fill:#fff;"></path><path d="M77.36,174.69s.21,2.07-.92,3.59c-1.13,1.52-3.18,1.92-3.18,1.92,0,0-.21-2.07,.92-3.59,1.13-1.52,3.18-1.92,3.18-1.92Z" style="fill:#fff;"></path><path d="M73.31,182.61s.21,2.07-.92,3.59c-1.13,1.52-3.18,1.92-3.18,1.92,0,0-.21-2.07,.92-3.59,1.13-1.52,3.18-1.92,3.18-1.92Z" style="fill:#fff;"></path><path d="M82.92,176.84s.21,2.07-.92,3.59c-1.13,1.52-3.18,1.92-3.18,1.92,0,0-.21-2.07,.92-3.59,1.13-1.52,3.18-1.92,3.18-1.92Z" style="fill:#fff;"></path><path d="M51.68,176.84s-.21,2.07,.92,3.59c1.13,1.52,3.18,1.92,3.18,1.92,0,0,.21-2.07-.92-3.59-1.13-1.52-3.18-1.92-3.18-1.92Z" style="fill:#fff;"></path><path d="M78.24,165s.21,2.07-.92,3.59c-1.13,1.52-3.18,1.92-3.18,1.92,0,0-.21-2.07,.92-3.59,1.13-1.52,3.18-1.91,3.18-1.91Z" style="fill:#fff;"></path><path d="M76.25,154.72s.72,1.95,0,3.71c-.71,1.76-2.59,2.65-2.59,2.65,0,0-.72-1.95,0-3.71,.71-1.76,2.59-2.65,2.59-2.65Z" style="fill:#fff;"></path><path d="M61.99,152.03s1.84,.97,2.49,2.75c.65,1.78-.15,3.71-.15,3.71,0,0-1.84-.97-2.49-2.75s.15-3.71,.15-3.71Z" style="fill:#fff;"></path><path d="M68.64,164.33s1.31,1.62,1.21,3.51-1.6,3.35-1.6,3.35c0,0-1.31-1.62-1.21-3.51,.11-1.89,1.6-3.35,1.6-3.35Z" style="fill:#fff;"></path><path d="M68.28,146.02s1.31,1.62,1.21,3.51c-.11,1.89-1.6,3.35-1.6,3.35,0,0-1.31-1.62-1.21-3.51,.11-1.89,1.6-3.35,1.6-3.35Z" style="fill:#fff;"></path><path d="M53.36,185.08s-.21,2.07,.92,3.59c1.13,1.52,3.18,1.91,3.18,1.91,0,0,.21-2.07-.92-3.59s-3.18-1.92-3.18-1.92Z" style="fill:#fff;"></path><path d="M49.48,196.34s-.21,2.07,.92,3.59c1.13,1.52,3.18,1.91,3.18,1.91,0,0,.21-2.07-.92-3.59-1.13-1.52-3.18-1.92-3.18-1.92Z" style="fill:#fff;"></path><path d="M59.77,200.44s-.21,2.07,.92,3.59,3.18,1.91,3.18,1.91c0,0,.21-2.07-.92-3.59s-3.18-1.92-3.18-1.92Z" style="fill:#fff;"></path><path d="M62.58,184.82s-.79,1.93-.14,3.71c.65,1.78,2.5,2.74,2.5,2.74,0,0,.79-1.93,.14-3.71-.65-1.78-2.5-2.74-2.5-2.74Z" style="fill:#fff;"></path><path d="M55.3,226.37s2.08,.04,3.5-1.22,1.65-3.32,1.65-3.32c0,0-2.08-.04-3.5,1.22-1.42,1.25-1.65,3.32-1.65,3.32Z" style="fill:#fff;"></path><path d="M75.27,224.09s.57,2,2.18,3c1.61,1,3.66,.62,3.66,.62,0,0-.57-2-2.18-3-1.61-1-3.66-.62-3.66-.62Z" style="fill:#fff;"></path><path d="M57.62,174.69s-.21,2.07,.92,3.59c1.13,1.52,3.18,1.92,3.18,1.92,0,0,.21-2.07-.92-3.59-1.13-1.52-3.18-1.92-3.18-1.92Z" style="fill:#fff;"></path><path d="M57.58,165.53s-.21,2.07,.92,3.59c1.13,1.52,3.18,1.92,3.18,1.92,0,0,.21-2.07-.92-3.59-1.13-1.52-3.18-1.91-3.18-1.91Z" style="fill:#fff;"></path></g></g><g><path d="M424.7,193.62c0,26.53-15.7,48.04-35.06,48.04s-35.06-21.51-35.06-48.04,15.7-117.73,35.06-117.73,35.06,91.19,35.06,117.73Z" style="fill:#31D158;"></path><path d="M424.7,193.62c0,26.53-15.7,48.04-35.06,48.04s-35.06-21.51-35.06-48.04,15.7-117.73,35.06-117.73,35.06,91.19,35.06,117.73Z" style="fill:#fff; opacity: .5;"></path><polygon points="370.7 196 381.89 199.9 387.43 207.43 386.46 230.49 380.01 226.11 386.26 235.26 385.89 275.57 390.12 276.1 391.05 276.31 390.73 217.74 409.3 207.5 398.68 211.43 400.81 205.04 395.74 212.52 390.67 214.39 390.31 193.41 408.75 168.9 398.87 178.79 400.54 171.91 395.81 181.84 390.21 187.45 389.64 154.66 387.63 202.48 370.16 183.96 379.76 197.01 370.7 196" style="fill:#999;"></polygon><g><path d="M408.93,154.77s.32,3.22-1.44,5.59c-1.76,2.36-4.94,2.98-4.94,2.98,0,0-.32-3.22,1.44-5.59,1.76-2.36,4.94-2.98,4.94-2.98Z" style="fill:#fff;"></path><path d="M419.5,169.61s.32,3.22-1.44,5.59c-1.76,2.36-4.94,2.98-4.94,2.98,0,0-.32-3.22,1.44-5.59s4.94-2.98,4.94-2.98Z" style="fill:#fff;"></path><path d="M419.49,198.52s-.78,3.14-3.23,4.78c-2.45,1.63-5.65,1.14-5.65,1.14,0,0,.78-3.14,3.23-4.78,2.45-1.63,5.65-1.14,5.65-1.14Z" style="fill:#fff;"></path><path d="M361.46,198.52s.78,3.14,3.23,4.78c2.45,1.63,5.65,1.14,5.65,1.14,0,0-.78-3.14-3.23-4.78-2.45-1.63-5.65-1.14-5.65-1.14Z" style="fill:#fff;"></path><path d="M407.29,186.52s.32,3.22-1.44,5.59c-1.76,2.36-4.94,2.98-4.94,2.98,0,0-.32-3.22,1.44-5.59,1.76-2.36,4.94-2.98,4.94-2.98Z" style="fill:#fff;"></path><path d="M404.55,138.62s.32,3.22-1.44,5.59c-1.76,2.36-4.94,2.98-4.94,2.98,0,0-.32-3.22,1.44-5.59,1.76-2.36,4.94-2.98,4.94-2.98Z" style="fill:#fff;"></path><path d="M398.25,150.94s.32,3.22-1.44,5.59-4.94,2.98-4.94,2.98c0,0-.32-3.22,1.44-5.59,1.76-2.36,4.94-2.98,4.94-2.98Z" style="fill:#fff;"></path><path d="M413.2,141.97s.32,3.22-1.44,5.59c-1.76,2.36-4.94,2.98-4.94,2.98,0,0-.32-3.22,1.44-5.59,1.76-2.36,4.94-2.98,4.94-2.98Z" style="fill:#fff;"></path><path d="M364.63,141.97s-.32,3.22,1.44,5.59c1.76,2.36,4.94,2.98,4.94,2.98,0,0,.32-3.22-1.44-5.59-1.76-2.36-4.94-2.98-4.94-2.98Z" style="fill:#fff;"></path><path d="M405.92,123.56s.32,3.22-1.44,5.59-4.94,2.98-4.94,2.98c0,0-.32-3.22,1.44-5.59,1.76-2.36,4.94-2.98,4.94-2.98Z" style="fill:#fff;"></path><path d="M402.82,107.57s1.12,3.04,.01,5.77c-1.11,2.73-4.03,4.12-4.03,4.12,0,0-1.12-3.04-.01-5.77,1.11-2.73,4.03-4.12,4.03-4.12Z" style="fill:#fff;"></path><path d="M380.65,103.39s2.87,1.5,3.87,4.27c1.01,2.77-.23,5.76-.23,5.76,0,0-2.87-1.5-3.87-4.27-1.01-2.77,.23-5.76,.23-5.76Z" style="fill:#fff;"></path><path d="M390.99,122.51s2.04,2.51,1.87,5.45c-.17,2.94-2.49,5.2-2.49,5.2,0,0-2.04-2.51-1.87-5.45,.17-2.94,2.49-5.2,2.49-5.2Z" style="fill:#fff;"></path><path d="M390.45,94.05s2.04,2.51,1.87,5.45c-.17,2.94-2.49,5.2-2.49,5.2,0,0-2.04-2.51-1.87-5.45s2.49-5.2,2.49-5.2Z" style="fill:#fff;"></path><path d="M367.24,154.77s-.32,3.22,1.44,5.59c1.76,2.36,4.94,2.98,4.94,2.98,0,0,.32-3.22-1.44-5.59-1.76-2.36-4.94-2.98-4.94-2.98Z" style="fill:#fff;"></path><path d="M361.22,172.29s-.32,3.22,1.44,5.59c1.76,2.36,4.94,2.98,4.94,2.98,0,0,.32-3.22-1.44-5.59-1.76-2.36-4.94-2.98-4.94-2.98Z" style="fill:#fff;"></path><path d="M377.21,178.65s-.32,3.22,1.44,5.59,4.94,2.98,4.94,2.98c0,0,.32-3.22-1.44-5.59-1.76-2.36-4.94-2.98-4.94-2.98Z" style="fill:#fff;"></path><path d="M381.58,154.37s-1.23,2.99-.22,5.76c1.01,2.77,3.88,4.27,3.88,4.27,0,0,1.23-2.99,.22-5.76-1.01-2.77-3.88-4.27-3.88-4.27Z" style="fill:#fff;"></path><path d="M370.26,218.97s3.24,.06,5.45-1.89c2.21-1.95,2.56-5.17,2.56-5.17,0,0-3.24-.06-5.45,1.89-2.21,1.95-2.56,5.17-2.56,5.17Z" style="fill:#fff;"></path><path d="M401.32,215.43s.88,3.12,3.38,4.67c2.5,1.55,5.69,.96,5.69,.96,0,0-.88-3.12-3.38-4.67-2.5-1.55-5.69-.96-5.69-.96Z" style="fill:#fff;"></path><path d="M373.87,138.62s-.32,3.22,1.44,5.59c1.76,2.36,4.94,2.98,4.94,2.98,0,0,.32-3.22-1.44-5.59-1.76-2.36-4.94-2.98-4.94-2.98Z" style="fill:#fff;"></path><path d="M373.81,124.38s-.32,3.22,1.44,5.59c1.76,2.36,4.94,2.98,4.94,2.98,0,0,.32-3.22-1.44-5.59-1.76-2.36-4.94-2.98-4.94-2.98Z" style="fill:#fff;"></path></g></g><g><path d="M468.96,126.04c0,26.53-15.7,48.04-35.06,48.04s-35.06-21.51-35.06-48.04,15.7-117.73,35.06-117.73,35.06,91.19,35.06,117.73Z" style="fill:#31D158;"></path><path d="M468.96,126.04c0,26.53-15.7,48.04-35.06,48.04s-35.06-21.51-35.06-48.04,15.7-117.73,35.06-117.73,35.06,91.19,35.06,117.73Z" style="fill:#fff; opacity: .5;"></path><polygon points="414.96 128.42 426.14 132.32 431.68 139.85 430.71 162.91 424.27 158.53 430.51 167.68 429.41 284.93 435.69 286.51 434.99 150.16 453.56 139.92 442.94 143.85 445.07 137.46 440 144.94 434.93 146.81 434.57 125.83 453.01 101.32 443.13 111.21 444.8 104.33 440.07 114.26 434.47 119.87 433.9 87.08 431.89 134.9 414.41 116.38 424.01 129.43 414.96 128.42" style="fill:#999;"></polygon><g><path d="M453.19,87.19s.32,3.22-1.44,5.59c-1.76,2.36-4.94,2.98-4.94,2.98,0,0-.32-3.22,1.44-5.59,1.76-2.36,4.94-2.98,4.94-2.98Z" style="fill:#fff;"></path><path d="M463.75,102.03s.32,3.22-1.44,5.59c-1.76,2.36-4.94,2.98-4.94,2.98,0,0-.32-3.22,1.44-5.59s4.94-2.98,4.94-2.98Z" style="fill:#fff;"></path><path d="M463.75,130.94s-.78,3.14-3.23,4.78c-2.45,1.63-5.65,1.14-5.65,1.14,0,0,.78-3.14,3.23-4.78,2.45-1.63,5.65-1.14,5.65-1.14Z" style="fill:#fff;"></path><path d="M405.72,130.94s.78,3.14,3.23,4.78c2.45,1.63,5.65,1.14,5.65,1.14,0,0-.78-3.14-3.23-4.78-2.45-1.63-5.65-1.14-5.65-1.14Z" style="fill:#fff;"></path><path d="M451.55,118.94s.32,3.22-1.44,5.59-4.94,2.98-4.94,2.98c0,0-.32-3.22,1.44-5.59,1.76-2.36,4.94-2.98,4.94-2.98Z" style="fill:#fff;"></path><path d="M448.81,71.04s.32,3.22-1.44,5.59c-1.76,2.36-4.94,2.98-4.94,2.98,0,0-.32-3.22,1.44-5.59,1.76-2.36,4.94-2.98,4.94-2.98Z" style="fill:#fff;"></path><path d="M442.51,83.36s.32,3.22-1.44,5.59c-1.76,2.36-4.94,2.98-4.94,2.98,0,0-.32-3.22,1.44-5.59s4.94-2.98,4.94-2.98Z" style="fill:#fff;"></path><path d="M457.46,74.39s.32,3.22-1.44,5.59c-1.76,2.36-4.94,2.98-4.94,2.98,0,0-.32-3.22,1.44-5.59,1.76-2.36,4.94-2.98,4.94-2.98Z" style="fill:#fff;"></path><path d="M408.89,74.39s-.32,3.22,1.44,5.59c1.76,2.36,4.94,2.98,4.94,2.98,0,0,.32-3.22-1.44-5.59-1.76-2.36-4.94-2.98-4.94-2.98Z" style="fill:#fff;"></path><path d="M450.18,55.98s.32,3.22-1.44,5.59-4.94,2.98-4.94,2.98c0,0-.32-3.22,1.44-5.59,1.76-2.36,4.94-2.98,4.94-2.98Z" style="fill:#fff;"></path><path d="M447.08,39.99s1.12,3.04,.01,5.77c-1.11,2.73-4.03,4.12-4.03,4.12,0,0-1.12-3.04-.01-5.77,1.11-2.73,4.03-4.12,4.03-4.12Z" style="fill:#fff;"></path><path d="M424.91,35.81s2.87,1.5,3.87,4.27c1.01,2.77-.23,5.76-.23,5.76,0,0-2.87-1.5-3.87-4.27-1.01-2.77,.23-5.76,.23-5.76Z" style="fill:#fff;"></path><path d="M435.25,54.93s2.04,2.51,1.87,5.45c-.17,2.94-2.49,5.2-2.49,5.2,0,0-2.04-2.51-1.87-5.45,.17-2.94,2.49-5.2,2.49-5.2Z" style="fill:#fff;"></path><path d="M434.7,26.47s2.04,2.51,1.87,5.45c-.17,2.94-2.49,5.2-2.49,5.2,0,0-2.04-2.51-1.87-5.45,.17-2.94,2.49-5.2,2.49-5.2Z" style="fill:#fff;"></path><path d="M411.5,87.19s-.32,3.22,1.44,5.59,4.94,2.98,4.94,2.98c0,0,.32-3.22-1.44-5.59-1.76-2.36-4.94-2.98-4.94-2.98Z" style="fill:#fff;"></path><path d="M405.48,104.71s-.32,3.22,1.44,5.59c1.76,2.36,4.94,2.98,4.94,2.98,0,0,.32-3.22-1.44-5.59-1.76-2.36-4.94-2.98-4.94-2.98Z" style="fill:#fff;"></path><path d="M421.46,111.07s-.32,3.22,1.44,5.59c1.76,2.36,4.94,2.98,4.94,2.98,0,0,.32-3.22-1.44-5.59-1.76-2.36-4.94-2.98-4.94-2.98Z" style="fill:#fff;"></path><path d="M425.83,86.79s-1.23,2.99-.22,5.76c1.01,2.77,3.88,4.27,3.88,4.27,0,0,1.23-2.99,.22-5.76-1.01-2.77-3.88-4.27-3.88-4.27Z" style="fill:#fff;"></path><path d="M414.51,151.39s3.24,.06,5.45-1.89c2.21-1.95,2.56-5.17,2.56-5.17,0,0-3.24-.06-5.45,1.89-2.21,1.95-2.56,5.17-2.56,5.17Z" style="fill:#fff;"></path><path d="M445.57,147.85s.88,3.12,3.38,4.67c2.5,1.55,5.69,.96,5.69,.96,0,0-.88-3.12-3.38-4.67-2.5-1.55-5.69-.96-5.69-.96Z" style="fill:#fff;"></path><path d="M418.13,71.04s-.32,3.22,1.44,5.59c1.76,2.36,4.94,2.98,4.94,2.98,0,0,.32-3.22-1.44-5.59-1.76-2.36-4.94-2.98-4.94-2.98Z" style="fill:#fff;"></path><path d="M418.07,56.8s-.32,3.22,1.44,5.59c1.76,2.36,4.94,2.98,4.94,2.98,0,0,.32-3.22-1.44-5.59-1.76-2.36-4.94-2.98-4.94-2.98Z" style="fill:#fff;"></path></g></g></g><g id="freepik--Floor--inject-96"><g><polyline points="27.56 240.25 131.84 273.12 243.34 305.75 287.54 306.43 305.9 307.79" style="fill: none; stroke: #263238; stroke-linecap: round; stroke-linejoin: round;"></polyline><g><path d="M464.66,294.35s-79.89-21.92-87.37-19.2c-7.48,2.72-86.35,38.76-89.07,42.84s-42.06,24.16-42.06,24.16l-39.59,8.72-29.93,11.27-36.92,12.05-101.1,38.28" style="fill: none; stroke: #263238; stroke-linecap: round; stroke-linejoin: round;"></path><g><g><polygon points="270.69 349.93 261.57 353.52 258.46 360.57 278.42 365.88 295.89 360.26 292.15 354.34 280.07 352.41 270.69 349.93" style="fill:#263238; stroke: #fff; stroke-linecap: round; stroke-linejoin: round;"></polygon><polygon points="244.73 353.09 235.06 355.58 226.64 359.64 242.86 361.2 250.66 357.14 244.73 353.09" style="fill:#263238; stroke: #fff; stroke-linecap: round; stroke-linejoin: round;"></polygon><polygon points="239.74 404.52 232.19 406.47 225.62 409.63 238.28 410.85 244.36 407.68 239.74 404.52" style="fill:#263238; stroke: #fff; stroke-linecap: round; stroke-linejoin: round;"></polygon><polygon points="250.91 366.54 247.18 368.11 244.04 370.08 264.06 369.49 261.51 366.15 255.42 364.19 250.91 366.54" style="fill:#263238; stroke: #fff; stroke-linecap: round; stroke-linejoin: round;"></polygon><polygon points="282.51 372.63 270.73 372.63 270.54 374.4 272.69 375.38 284.86 378.91 290.36 375.77 292.13 373.61 282.51 372.63" style="fill:#263238; stroke: #fff; stroke-linecap: round; stroke-linejoin: round;"></polygon><path d="M270.69,397.97s-4.97,1.1-6.63,1.93c-1.66,.83-3.59,4.42-3.59,4.42l10.49,2.76,9.39-4.14-3.87-3.59-5.8-1.38Z" style="fill:#263238; stroke: #fff; stroke-linecap: round; stroke-linejoin: round;"></path><path d="M202.79,395.79s-4.97,1.1-6.63,1.93-3.59,4.42-3.59,4.42l10.49,2.76,9.39-4.14-3.87-3.59-5.8-1.38Z" style="fill:#263238; stroke: #fff; stroke-linecap: round; stroke-linejoin: round;"></path><path d="M334.17,375.89s-4.97,1.1-6.63,1.93c-1.66,.83-3.59,4.42-3.59,4.42l10.49,2.76,9.39-4.14-3.87-3.59-5.8-1.38Z" style="fill:#263238; stroke: #fff; stroke-linecap: round; stroke-linejoin: round;"></path><polygon points="256.05 395.49 246.66 396.87 249.7 398.8 254.67 399.07 262.13 396.04 256.05 395.49" style="fill:#263238; stroke: #fff; stroke-linecap: round; stroke-linejoin: round;"></polygon><polygon points="305.08 324.32 295.7 325.7 298.73 327.63 303.7 327.91 311.16 324.87 305.08 324.32" style="fill:#263238; stroke: #fff; stroke-linecap: round; stroke-linejoin: round;"></polygon><polygon points="224.9 399.42 215.51 400.8 218.55 402.73 223.52 403 230.97 399.97 224.9 399.42" style="fill:#263238; stroke: #fff; stroke-linecap: round; stroke-linejoin: round;"></polygon><polygon points="240.56 365.14 228.06 367.03 220.87 371.2 241.69 372.33 240.56 365.14" style="fill:#263238; stroke: #fff; stroke-linecap: round; stroke-linejoin: round;"></polygon><polygon points="212.53 364.76 198.15 367.41 193.98 370.44 203.07 371.2 212.53 364.76" style="fill:#263238; stroke: #fff; stroke-linecap: round; stroke-linejoin: round;"></polygon><polygon points="292.43 385.21 275.39 385.21 261.76 388.99 266.68 391.27 285.62 395.43 297.73 391.64 292.43 385.21" style="fill:#263238; stroke: #fff; stroke-linecap: round; stroke-linejoin: round;"></polygon><polygon points="125.87 410.2 113.85 410.2 104.24 412.87 107.71 414.47 121.06 417.41 129.61 414.74 125.87 410.2" style="fill:#263238; stroke: #fff; stroke-linecap: round; stroke-linejoin: round;"></polygon><polygon points="212.2 415.5 203.34 415.5 196.25 417.47 198.81 418.65 208.66 420.82 214.96 418.85 212.2 415.5" style="fill:#263238; stroke: #fff; stroke-linecap: round; stroke-linejoin: round;"></polygon></g><g><polygon points="382.81 371.02 375.74 368.24 373.33 362.77 388.81 358.65 402.36 363.01 399.46 367.6 390.09 369.09 382.81 371.02" style="fill:#263238; stroke: #fff; stroke-linecap: round; stroke-linejoin: round;"></polygon><polygon points="362.68 368.57 355.18 366.64 348.65 363.49 361.23 362.28 367.28 365.43 362.68 368.57" style="fill:#263238; stroke: #fff; stroke-linecap: round; stroke-linejoin: round;"></polygon><polygon points="395.92 301.85 390.07 300.34 384.97 297.89 394.79 296.94 399.51 299.4 395.92 301.85" style="fill:#263238; stroke: #fff; stroke-linecap: round; stroke-linejoin: round;"></polygon><polygon points="367.47 358.14 364.58 356.92 362.14 355.4 377.67 355.85 375.69 358.44 370.97 359.96 367.47 358.14" style="fill:#263238; stroke: #fff; stroke-linecap: round; stroke-linejoin: round;"></polygon><polygon points="391.98 353.42 382.85 353.42 382.69 352.05 384.37 351.29 393.81 348.55 398.07 350.98 399.44 352.66 391.98 353.42" style="fill:#263238; stroke: #fff; stroke-linecap: round; stroke-linejoin: round;"></polygon><path d="M382.81,333.76s-3.85-.86-5.14-1.5c-1.28-.64-2.78-3.43-2.78-3.43l8.14-2.14,7.28,3.21-3,2.78-4.5,1.07Z" style="fill:#263238; stroke: #fff; stroke-linecap: round; stroke-linejoin: round;"></path><path d="M367.27,308.62s-3.85-.86-5.14-1.5c-1.28-.64-2.78-3.43-2.78-3.43l8.14-2.14,7.28,3.21-3,2.78-4.5,1.07Z" style="fill:#263238; stroke: #fff; stroke-linecap: round; stroke-linejoin: round;"></path><path d="M432.05,350.89s-3.85-.86-5.14-1.5c-1.28-.64-2.78-3.43-2.78-3.43l8.14-2.14,7.28,3.21-3,2.78-4.5,1.07Z" style="fill:#263238; stroke: #fff; stroke-linecap: round; stroke-linejoin: round;"></path><polygon points="371.46 335.69 364.18 334.62 366.54 333.12 370.39 332.91 376.17 335.26 371.46 335.69" style="fill:#263238; stroke: #fff; stroke-linecap: round; stroke-linejoin: round;"></polygon><polygon points="409.49 390.88 402.21 389.81 404.56 388.31 408.42 388.1 414.2 390.46 409.49 390.88" style="fill:#263238; stroke: #fff; stroke-linecap: round; stroke-linejoin: round;"></polygon><polygon points="384.41 305.81 377.13 304.74 379.49 303.24 383.34 303.02 389.12 305.38 384.41 305.81" style="fill:#263238; stroke: #fff; stroke-linecap: round; stroke-linejoin: round;"></polygon><polygon points="359.44 359.23 349.75 357.76 344.17 354.53 360.33 353.65 359.44 359.23" style="fill:#263238; stroke: #fff; stroke-linecap: round; stroke-linejoin: round;"></polygon><polygon points="337.71 359.52 326.55 357.46 323.32 355.12 330.37 354.53 337.71 359.52" style="fill:#263238; stroke: #fff; stroke-linecap: round; stroke-linejoin: round;"></polygon><polygon points="399.68 343.66 386.46 343.66 375.89 340.73 379.71 338.96 394.39 335.73 403.79 338.67 399.68 343.66" style="fill:#263238; stroke: #fff; stroke-linecap: round; stroke-linejoin: round;"></polygon><polygon points="374.57 293.33 367.69 293.33 362.2 291.81 364.18 290.89 371.82 289.21 376.71 290.74 374.57 293.33" style="fill:#263238; stroke: #fff; stroke-linecap: round; stroke-linejoin: round;"></polygon></g></g></g><g><polygon points="95.46 320.2 91.64 317.35 91.07 313.64 101.12 313.68 108.61 318.54 106.1 320.85 100.19 320.22 95.46 320.2" style="fill:#263238;"></polygon><polygon points="83.67 315.42 79.45 313.02 76 310.05 83.82 311.37 86.97 314.27 83.67 315.42" style="fill:#263238;"></polygon><polygon points="105.93 280.56 102.26 279.61 99.06 278.07 105.22 277.48 108.18 279.02 105.93 280.56" style="fill:#263238;"></polygon><polygon points="88.28 309.88 86.73 308.67 85.5 307.35 94.83 310.17 93.21 311.41 90.1 311.56 88.28 309.88" style="fill:#263238;"></polygon><polygon points="103.89 311.03 98.36 309.54 98.49 308.68 99.63 308.5 105.8 308.38 107.98 310.55 108.54 311.79 103.89 311.03" style="fill:#263238;"></polygon><polygon points="190.55 319.54 184.82 319.54 184.73 318.68 185.78 318.21 191.7 316.49 194.37 318.01 195.23 319.07 190.55 319.54" style="fill:#263238;"></polygon><path d="M101.55,297.63s-2.19-1.15-2.87-1.75c-.67-.6-1.13-2.53-1.13-2.53l5.28,.03,3.88,3.14-2.27,1.2-2.9-.09Z" style="fill:#263238;"></path><path d="M87.95,284.8s-2.42-.54-3.22-.94-1.75-2.15-1.75-2.15l5.1-1.34,4.57,2.02-1.88,1.75-2.82,.67Z" style="fill:#263238;"></path><path d="M128.58,316.05s-2.19-1.15-2.87-1.75c-.67-.6-1.13-2.53-1.13-2.53l5.28,.03,3.88,3.14-2.27,1.2-2.9-.09Z" style="fill:#263238;"></path><polygon points="94.37 296.94 90.13 295.1 91.8 294.58 94.17 295.08 97.29 297.45 94.37 296.94" style="fill:#263238;"></polygon><polygon points="108.37 336.59 104.14 334.75 105.81 334.23 108.18 334.73 111.3 337.1 108.37 336.59" style="fill:#263238;"></polygon><polygon points="98.71 283.04 94.14 282.37 95.62 281.43 98.04 281.29 101.66 282.77 98.71 283.04" style="fill:#263238;"></polygon><polygon points="83.24 309.23 77.61 306.76 74.76 303.89 84.68 306 83.24 309.23" style="fill:#263238;"></polygon><polygon points="70.03 305.86 63.61 302.79 62.03 300.83 66.4 301.63 70.03 305.86" style="fill:#263238;"></polygon><polygon points="110.15 306.38 102.15 304.22 96.22 300.71 98.82 300.27 108.25 300.72 113.46 304.03 110.15 306.38" style="fill:#263238;"></polygon><path d="M187.04,338.06s-2.42-.54-3.22-.94-1.75-2.15-1.75-2.15l5.1-1.34,4.57,2.01-1.88,1.75-2.82,.67Z" style="fill:#263238;"></path><polygon points="179.92 339.27 175.35 338.6 176.83 337.66 179.24 337.52 182.87 339 179.92 339.27" style="fill:#263238;"></polygon><polygon points="197.62 344.27 189.33 344.27 182.69 342.43 185.09 341.32 194.3 339.3 200.2 341.14 197.62 344.27" style="fill:#263238;"></polygon><path d="M152.87,305.97s2.47,.11,3.36-.07,2.25-1.62,2.25-1.62l-4.58-2.63-4.93,.76,1.36,2.18,2.55,1.38Z" style="fill:#263238;"></path><polygon points="159.43 309 164.01 309.54 162.83 308.24 160.53 307.48 156.64 307.97 159.43 309" style="fill:#263238;"></polygon><polygon points="141.03 309.21 149.04 311.37 155.92 311.32 153.9 309.63 145.53 305.27 139.36 305.51 141.03 309.21" style="fill:#263238;"></polygon><path d="M252.56,321.65s1.53-.34,2.04-.6c.51-.26,1.11-1.36,1.11-1.36l-3.24-.85-2.9,1.28,1.19,1.11,1.79,.43Z" style="fill:#263238;"></path><polygon points="257.08 322.41 259.97 321.99 259.03 321.39 257.5 321.3 255.2 322.24 257.08 322.41" style="fill:#263238;"></polygon><polygon points="245.85 325.58 251.11 325.58 255.31 324.41 253.8 323.71 247.96 322.43 244.22 323.6 245.85 325.58" style="fill:#263238;"></polygon><polygon points="92.53 275.21 88.22 275.21 84.77 274.25 86.02 273.68 90.81 272.63 93.87 273.58 92.53 275.21" style="fill:#263238;"></polygon></g></g></g><g id="freepik--Plants--inject-96"><g><g><path d="M68.67,375.61c.68,.3,2.33,.26,2.33,.26,.02,0-.36-1.08-.39-1.15-.36-.76-1.51-2.01-2.44-1.89-.67,.09-1.05,.76-.9,1.4,.16,.65,.82,1.13,1.39,1.38Z" style="fill:#263238;"></path><path d="M69.24,380.4c.7,.1,2.18-.33,2.3-.36,.23,.83,.54,1.66,.9,2.48,.2,.47,.42,.94,.65,1.4-.13-.2-.26-.37-.28-.4-.55-.64-1.99-1.54-2.86-1.17-.63,.27-.81,1.01-.49,1.58,.32,.58,1.09,.87,1.71,.96,.63,.09,1.9-.25,2.23-.34,.09,.18,.17,.36,.26,.53,.43,.85,.86,1.7,1.25,2.54,.14,.3,.27,.6,.39,.89-.12-.18-.22-.32-.24-.34-.55-.64-1.99-1.54-2.86-1.17-.62,.27-.81,1.01-.49,1.58,.32,.58,1.09,.87,1.71,.96,.6,.09,1.77-.22,2.17-.33,.12,.31,.24,.62,.35,.92,.07,.21,.15,.41,.2,.62,.06,.21,.12,.42,.17,.63,.1,.4,.2,.82,.28,1.21,.06,.27,.11,.54,.17,.8-.14-.3-.41-.88-.44-.92-.45-.71-1.73-1.83-2.65-1.59-.66,.17-.95,.88-.73,1.49,.23,.62,.94,1.03,1.54,1.21,.66,.2,2.13,.02,2.31,0,.09,.44,.17,.86,.24,1.27,.16,.89,.28,1.69,.37,2.37h.62c-.11-.7-.25-1.53-.43-2.47-.09-.44-.19-.92-.3-1.4,.11-.04,.73-.3,1.29-.61,.48,.52,1.72,1.13,1.88,1.21-.17,.41-.34,.81-.5,1.19-.34,.79-.67,1.48-.95,2.08h.67c.25-.55,.52-1.17,.8-1.86,.17-.42,.35-.87,.53-1.34,.18,.04,1.63,.33,2.3,.18,.61-.14,1.36-.49,1.63-1.09,.27-.59,.03-1.33-.62-1.54-.89-.3-2.26,.71-2.76,1.39-.03,.04-.3,.51-.47,.81,.07-.19,.14-.37,.21-.57,.14-.39,.27-.78,.42-1.2,.06-.21,.12-.41,.19-.62,.07-.21,.11-.43,.17-.65,.12-.51,.22-1.03,.31-1.56,.34,.12,1.56,.55,2.19,.5,.63-.04,1.41-.27,1.78-.83,.36-.55,.23-1.31-.37-1.62-.84-.43-2.34,.36-2.94,.96-.04,.04-.42,.51-.62,.78,.05-.32,.1-.64,.14-.96,.12-.93,.2-1.88,.3-2.83,.03-.29,.06-.58,.09-.87,.12,.05,1.56,.58,2.26,.53,.63-.04,1.41-.27,1.78-.83,.36-.55,.23-1.31-.37-1.62-.84-.43-2.34,.36-2.94,.96-.05,.04-.59,.73-.72,.91,.07-.64,.14-1.27,.24-1.89,.13-.86,.31-1.69,.54-2.49,.06,.02,1.55,.59,2.27,.53,.63-.04,1.41-.27,1.78-.83,.36-.55,.23-1.31-.37-1.62-.84-.43-2.34,.36-2.94,.96-.05,.05-.63,.78-.73,.92,.01-.05,.02-.1,.04-.14,.26-.85,.62-1.63,.99-2.36,.21-.42,.44-.81,.67-1.18,.27,.13,1.5,.73,2.15,.76,.63,.02,1.44-.12,1.86-.63,.41-.5,.37-1.27-.19-1.65-.79-.52-2.36,.11-3.02,.63-.04,.03-.37,.36-.61,.6,.11-.17,.21-.34,.32-.5,.39-.59,.79-1.11,1.15-1.57,.2-.26,.39-.49,.57-.7,.33,0,1.66-.05,2.25-.32,.57-.27,1.22-.77,1.36-1.42,.13-.64-.26-1.3-.93-1.37-.94-.1-2.05,1.18-2.39,1.95-.03,.07-.37,1.16-.36,1.16h.02c-.18,.2-.37,.42-.57,.66-.37,.45-.78,.96-1.19,1.55-.41,.59-.84,1.23-1.23,1.96-.39,.72-.77,1.51-1.05,2.36v.03c0-.28-.02-1.05-.02-1.11-.11-.83-.81-2.38-1.73-2.56-.67-.12-1.23,.4-1.29,1.05-.05,.66,.43,1.33,.9,1.75,.53,.47,2,.93,2.11,.97-.26,.82-.46,1.68-.62,2.56-.09,.5-.16,1.01-.23,1.53,0-.24,0-.45-.01-.48-.11-.83-.81-2.38-1.73-2.55-.67-.12-1.23,.4-1.29,1.05-.05,.66,.43,1.33,.9,1.75,.48,.42,1.72,.84,2.05,.95-.02,.2-.05,.39-.07,.59-.11,.95-.22,1.89-.36,2.81-.05,.33-.11,.64-.16,.96,0-.21,0-.39-.01-.42-.11-.83-.81-2.38-1.73-2.55-.67-.12-1.23,.4-1.29,1.05-.05,.66,.43,1.33,.9,1.75,.45,.41,1.6,.8,1.99,.93-.07,.32-.14,.65-.22,.96-.06,.21-.1,.42-.18,.63-.07,.21-.13,.42-.2,.62-.14,.39-.29,.79-.43,1.17-.1,.26-.2,.51-.3,.76,.05-.32,.14-.96,.14-1.01,.01-.56-.19-1.47-.58-2.11,0-.08,0-.16-.02-.25-.1-.64-.71-1.12-1.36-.95-.91,.24-1.49,1.84-1.53,2.68,0,.05,.03,.59,.06,.93-.05-.2-.09-.39-.14-.59-.1-.4-.2-.8-.32-1.23-.06-.21-.13-.41-.19-.62-.06-.21-.15-.42-.22-.64-.18-.49-.39-.98-.61-1.47,.35-.08,1.6-.4,2.1-.79,.5-.38,1.03-1.01,1.02-1.67,0-.65-.53-1.22-1.2-1.14-.94,.1-1.75,1.59-1.92,2.42-.01,.05-.07,.66-.09,.99-.13-.29-.27-.59-.41-.88-.42-.84-.87-1.68-1.31-2.52-.14-.26-.27-.52-.4-.77,.13-.03,1.62-.37,2.18-.81,.5-.38,1.03-1.01,1.02-1.67,0-.65-.53-1.22-1.2-1.14-.94,.1-1.75,1.59-1.92,2.42-.01,.06-.09,.93-.1,1.16-.3-.57-.58-1.14-.85-1.71-.36-.79-.67-1.58-.92-2.38,.06-.01,1.62-.37,2.19-.81,.5-.38,1.03-1.01,1.02-1.67,0-.65-.53-1.22-1.2-1.14-.94,.1-1.75,1.59-1.92,2.42-.01,.06-.1,1-.1,1.17-.01-.05-.03-.09-.05-.14-.25-.85-.39-1.7-.48-2.51-.05-.47-.08-.92-.09-1.36,.3-.04,1.65-.22,2.21-.56,.54-.33,1.13-.89,1.2-1.55,.07-.65-.39-1.27-1.07-1.27-.94,0-1.91,1.39-2.17,2.19-.01,.04-.11,.5-.17,.84,0-.2-.01-.4,0-.59,0-.71,.05-1.37,.09-1.94,.03-.33,.06-.62,.09-.9,.27-.19,1.36-.96,1.7-1.51,.33-.54,.59-1.31,.35-1.93-.24-.61-.93-.94-1.54-.63-.84,.43-1.06,2.12-.92,2.95,.01,.07,.33,1.17,.34,1.16h.02c-.04,.25-.07,.54-.11,.85-.06,.58-.12,1.23-.13,1.95-.02,.71-.02,1.49,.06,2.31,.07,.82,.19,1.68,.43,2.55v.03c-.14-.23-.58-.87-.61-.92-.55-.64-1.99-1.54-2.86-1.17-.62,.27-.81,1.01-.49,1.58,.32,.58,1.09,.87,1.71,.96Z" style="fill:#263238;"></path><path d="M85.4,375.97s.3-1.1,.31-1.17c.12-.83-.15-2.51-1-2.92-.61-.3-1.29,.06-1.52,.67-.23,.62,.06,1.39,.4,1.92,.4,.62,1.8,1.5,1.8,1.5Z" style="fill:#263238;"></path></g><g><path d="M436.27,267.19c.68,.3,2.33,.26,2.33,.26,.02,0-.36-1.08-.39-1.15-.36-.76-1.51-2.01-2.44-1.89-.67,.09-1.05,.76-.9,1.4,.16,.65,.82,1.13,1.39,1.38Z" style="fill:#263238;"></path><path d="M436.84,271.99c.7,.1,2.18-.33,2.3-.36,.23,.83,.54,1.66,.9,2.48,.2,.47,.42,.94,.65,1.4-.13-.2-.26-.37-.28-.4-.55-.64-1.99-1.54-2.86-1.17-.63,.27-.81,1.01-.49,1.58,.32,.58,1.09,.87,1.71,.96,.63,.09,1.9-.25,2.23-.34,.09,.18,.17,.36,.26,.53,.43,.85,.86,1.7,1.25,2.54,.14,.3,.27,.6,.39,.89-.12-.18-.22-.32-.24-.34-.55-.64-1.99-1.54-2.86-1.17-.62,.27-.81,1.01-.49,1.58,.32,.58,1.09,.87,1.71,.96,.6,.09,1.77-.22,2.17-.33,.12,.31,.24,.62,.35,.92,.07,.21,.15,.41,.2,.62,.06,.21,.12,.42,.17,.63,.1,.4,.2,.82,.28,1.21,.06,.27,.11,.54,.17,.8-.14-.3-.41-.88-.44-.92-.45-.71-1.73-1.83-2.65-1.59-.66,.17-.95,.88-.73,1.49,.23,.62,.94,1.03,1.54,1.21,.66,.2,2.13,.02,2.31,0,.09,.44,.17,.86,.24,1.27,.16,.89,.28,1.69,.37,2.37h.62c-.11-.7-.25-1.53-.43-2.47-.09-.44-.19-.92-.3-1.4,.11-.04,.73-.3,1.29-.61,.48,.52,1.72,1.13,1.88,1.21-.17,.41-.34,.81-.5,1.19-.34,.79-.67,1.48-.95,2.08h.67c.25-.55,.52-1.17,.8-1.86,.17-.42,.35-.87,.53-1.34,.18,.04,1.63,.33,2.3,.18,.61-.14,1.36-.49,1.63-1.09,.27-.59,.03-1.33-.62-1.54-.89-.3-2.26,.71-2.76,1.39-.03,.04-.3,.51-.47,.81,.07-.19,.14-.37,.21-.57,.14-.39,.27-.78,.42-1.2,.06-.21,.12-.41,.19-.62,.07-.21,.11-.43,.17-.65,.12-.51,.22-1.03,.31-1.56,.34,.12,1.56,.55,2.19,.5,.63-.04,1.41-.27,1.78-.83,.36-.55,.23-1.31-.37-1.62-.84-.43-2.34,.36-2.94,.96-.04,.04-.42,.51-.62,.78,.05-.32,.1-.64,.14-.96,.12-.93,.2-1.88,.3-2.83,.03-.29,.06-.58,.09-.87,.12,.05,1.55,.58,2.26,.53,.63-.04,1.41-.27,1.78-.83,.36-.55,.23-1.31-.37-1.62-.84-.43-2.34,.36-2.94,.96-.04,.04-.59,.73-.72,.91,.07-.64,.14-1.27,.24-1.89,.13-.86,.31-1.69,.54-2.49,.06,.02,1.55,.59,2.27,.53,.63-.04,1.41-.27,1.78-.83,.36-.55,.23-1.31-.37-1.62-.84-.43-2.34,.36-2.94,.96-.05,.05-.63,.78-.73,.92,.01-.05,.02-.1,.04-.14,.26-.85,.62-1.63,.99-2.36,.21-.42,.44-.81,.67-1.18,.27,.13,1.5,.73,2.15,.76,.63,.02,1.44-.12,1.86-.63,.41-.5,.37-1.27-.19-1.65-.79-.52-2.36,.11-3.02,.63-.04,.03-.37,.36-.61,.6,.11-.17,.21-.34,.32-.5,.39-.59,.79-1.11,1.15-1.57,.2-.26,.39-.49,.57-.7,.33,0,1.66-.05,2.25-.32,.57-.27,1.22-.77,1.36-1.42,.13-.64-.26-1.3-.93-1.37-.94-.1-2.05,1.18-2.39,1.95-.03,.07-.37,1.16-.36,1.16h.02c-.18,.2-.37,.42-.57,.66-.37,.45-.78,.96-1.19,1.55-.41,.59-.84,1.23-1.23,1.96-.39,.72-.77,1.51-1.05,2.36v.03c0-.28-.02-1.05-.02-1.11-.11-.83-.81-2.38-1.73-2.56-.67-.12-1.23,.4-1.29,1.05-.05,.66,.43,1.33,.9,1.75,.53,.47,2,.93,2.11,.97-.26,.82-.46,1.68-.62,2.56-.09,.5-.16,1.01-.23,1.53,0-.24,0-.45-.01-.48-.11-.83-.81-2.38-1.73-2.55-.67-.12-1.23,.4-1.29,1.05-.05,.66,.43,1.33,.9,1.75,.48,.42,1.72,.84,2.05,.95-.02,.2-.05,.39-.07,.59-.11,.95-.22,1.89-.36,2.81-.05,.33-.11,.64-.16,.96,0-.21,0-.39-.01-.42-.11-.83-.81-2.38-1.73-2.56-.67-.12-1.23,.4-1.29,1.05-.05,.66,.43,1.33,.9,1.75,.45,.41,1.6,.8,1.99,.93-.07,.32-.14,.65-.22,.96-.06,.21-.1,.42-.18,.63-.07,.21-.13,.42-.2,.62-.14,.39-.29,.79-.43,1.17-.1,.26-.2,.51-.3,.76,.05-.32,.14-.96,.14-1.01,.01-.56-.19-1.47-.58-2.11,0-.08,0-.16-.02-.25-.1-.64-.71-1.12-1.36-.95-.91,.24-1.49,1.84-1.53,2.68,0,.05,.03,.59,.06,.93-.05-.2-.09-.39-.14-.59-.1-.4-.2-.8-.32-1.23-.06-.21-.13-.41-.19-.62-.06-.21-.15-.42-.22-.64-.18-.49-.39-.98-.61-1.47,.35-.08,1.6-.4,2.1-.79,.5-.38,1.03-1.01,1.02-1.67,0-.65-.53-1.22-1.2-1.14-.94,.1-1.75,1.59-1.92,2.42-.01,.05-.07,.66-.09,.99-.13-.29-.27-.59-.41-.88-.42-.84-.87-1.68-1.31-2.52-.14-.26-.27-.52-.4-.77,.13-.03,1.62-.37,2.18-.81,.5-.38,1.03-1.01,1.02-1.67,0-.65-.53-1.22-1.2-1.14-.94,.1-1.75,1.59-1.92,2.42-.01,.06-.09,.93-.1,1.16-.3-.57-.58-1.14-.85-1.71-.36-.79-.67-1.58-.92-2.38,.06-.01,1.62-.37,2.19-.81,.5-.38,1.03-1.01,1.02-1.67,0-.65-.53-1.22-1.2-1.14-.94,.1-1.75,1.59-1.92,2.42-.01,.06-.1,1-.1,1.17-.01-.05-.03-.09-.05-.14-.25-.85-.39-1.7-.48-2.51-.05-.47-.08-.92-.09-1.36,.3-.04,1.65-.22,2.21-.56,.54-.33,1.13-.89,1.2-1.55,.07-.65-.39-1.27-1.07-1.27-.94,0-1.91,1.39-2.17,2.19-.01,.04-.11,.5-.17,.84,0-.2-.01-.4,0-.59,0-.71,.05-1.37,.09-1.94,.03-.33,.06-.62,.09-.9,.27-.19,1.36-.96,1.7-1.51,.33-.54,.59-1.31,.35-1.93-.24-.61-.93-.94-1.54-.63-.84,.43-1.06,2.12-.92,2.95,.01,.07,.33,1.17,.34,1.16h.02c-.04,.25-.07,.54-.11,.85-.06,.58-.12,1.23-.13,1.95-.02,.71-.02,1.49,.05,2.31,.07,.82,.19,1.68,.43,2.55v.03c-.14-.23-.58-.87-.61-.92-.55-.64-1.99-1.54-2.86-1.17-.62,.27-.81,1.01-.49,1.58,.32,.58,1.09,.87,1.71,.96Z" style="fill:#263238;"></path><path d="M453,267.56s.3-1.1,.31-1.17c.12-.83-.15-2.51-1-2.92-.61-.3-1.29,.06-1.52,.67-.23,.62,.06,1.39,.4,1.92,.4,.62,1.8,1.5,1.8,1.5Z" style="fill:#263238;"></path></g><g><path d="M214.24,331.17c.5,.22,1.71,.19,1.72,.19,.01,0-.26-.8-.28-.85-.27-.56-1.11-1.48-1.8-1.39-.49,.07-.77,.56-.66,1.03,.11,.48,.6,.83,1.03,1.02Z" style="fill:#263238;"></path><path d="M214.66,334.69c.52,.08,1.6-.24,1.69-.27,.17,.61,.4,1.22,.66,1.82,.15,.35,.31,.69,.48,1.03-.1-.15-.19-.27-.2-.29-.41-.47-1.46-1.13-2.1-.86-.46,.2-.59,.75-.36,1.17,.24,.43,.8,.64,1.26,.71,.46,.07,1.4-.18,1.64-.25,.06,.13,.13,.26,.19,.39,.31,.63,.63,1.25,.92,1.87,.1,.22,.2,.44,.29,.66-.09-.13-.16-.24-.18-.25-.41-.47-1.46-1.13-2.1-.86-.46,.2-.59,.75-.36,1.17,.24,.43,.8,.64,1.26,.71,.44,.06,1.3-.16,1.6-.24,.09,.23,.18,.45,.26,.68,.05,.15,.11,.3,.15,.46,.04,.16,.09,.31,.13,.46,.07,.3,.15,.6,.21,.89,.04,.2,.08,.4,.12,.59-.1-.22-.3-.64-.33-.68-.33-.52-1.27-1.34-1.95-1.17-.48,.12-.7,.65-.54,1.1,.17,.46,.69,.75,1.14,.89,.49,.15,1.56,.01,1.7,0,.06,.32,.12,.64,.18,.93,.12,.66,.2,1.24,.27,1.74h.45c-.08-.51-.18-1.13-.32-1.82-.06-.33-.14-.68-.22-1.03,.08-.03,.54-.22,.95-.45,.35,.38,1.26,.83,1.38,.89-.12,.3-.25,.6-.37,.88-.25,.58-.49,1.09-.7,1.53h.49c.18-.4,.38-.86,.59-1.37,.13-.31,.26-.64,.39-.98,.13,.03,1.2,.24,1.7,.13,.45-.1,1-.36,1.2-.8,.2-.44,.02-.98-.45-1.13-.66-.22-1.66,.53-2.03,1.02-.02,.03-.22,.37-.34,.59,.05-.14,.1-.28,.16-.42,.1-.29,.2-.57,.31-.88,.05-.15,.09-.3,.14-.46,.05-.15,.08-.32,.12-.48,.09-.38,.16-.76,.23-1.15,.25,.09,1.15,.4,1.61,.37,.46-.03,1.04-.2,1.31-.61,.26-.4,.17-.96-.28-1.19-.62-.32-1.72,.27-2.16,.7-.03,.03-.31,.38-.46,.57,.04-.23,.07-.47,.1-.71,.09-.69,.15-1.39,.22-2.08,.02-.21,.04-.43,.07-.64,.09,.03,1.14,.43,1.66,.39,.46-.03,1.04-.2,1.31-.61,.26-.4,.17-.96-.28-1.19-.62-.32-1.72,.27-2.16,.7-.03,.03-.43,.54-.53,.67,.05-.47,.1-.93,.17-1.39,.1-.63,.23-1.25,.4-1.83,.04,.02,1.14,.43,1.67,.39,.46-.03,1.04-.2,1.31-.61,.26-.4,.17-.96-.28-1.19-.62-.32-1.72,.27-2.16,.7-.03,.03-.47,.58-.54,.68,.01-.03,.02-.07,.03-.11,.19-.62,.45-1.2,.73-1.73,.16-.31,.33-.59,.5-.87,.2,.1,1.1,.54,1.58,.56,.46,.02,1.06-.09,1.37-.46,.3-.37,.27-.94-.14-1.21-.58-.38-1.74,.08-2.22,.46-.03,.02-.27,.26-.45,.44,.08-.12,.16-.25,.23-.37,.29-.44,.58-.82,.84-1.16,.15-.19,.29-.36,.42-.52,.24,0,1.22-.03,1.65-.24,.42-.2,.9-.56,1-1.04,.1-.47-.19-.96-.69-1.01-.69-.07-1.51,.87-1.76,1.44-.02,.05-.27,.85-.26,.85h.01c-.13,.15-.27,.31-.42,.49-.27,.33-.57,.71-.87,1.14-.3,.43-.62,.91-.9,1.44-.29,.53-.56,1.11-.77,1.74v.02c0-.2-.01-.77-.02-.81-.08-.61-.59-1.75-1.28-1.88-.49-.09-.91,.29-.95,.77-.04,.49,.31,.98,.66,1.28,.39,.35,1.47,.68,1.55,.71-.19,.6-.34,1.23-.46,1.88-.07,.37-.12,.75-.17,1.12,0-.18,0-.33,0-.35-.08-.61-.59-1.75-1.28-1.88-.49-.09-.91,.29-.95,.77-.04,.49,.31,.98,.66,1.28,.35,.31,1.26,.62,1.51,.7-.02,.15-.04,.29-.05,.43-.08,.7-.16,1.39-.26,2.07-.03,.24-.08,.47-.12,.71,0-.16,0-.29,0-.31-.08-.61-.59-1.75-1.28-1.88-.49-.09-.91,.29-.95,.77-.04,.49,.31,.98,.66,1.28,.33,.3,1.18,.59,1.46,.68-.05,.24-.1,.48-.16,.71-.04,.16-.08,.31-.13,.46-.05,.15-.1,.31-.15,.46-.1,.29-.21,.58-.32,.86-.07,.19-.15,.38-.22,.56,.04-.24,.1-.7,.1-.74,0-.41-.14-1.08-.43-1.55,0-.06,0-.12-.01-.18-.08-.47-.52-.82-1-.7-.67,.18-1.1,1.35-1.13,1.97,0,.04,.02,.43,.04,.69-.03-.15-.06-.29-.1-.44-.07-.3-.15-.59-.23-.91l-.14-.46c-.04-.15-.11-.31-.16-.47-.13-.36-.28-.72-.45-1.08,.26-.06,1.18-.3,1.55-.58,.37-.28,.76-.74,.75-1.23,0-.48-.39-.89-.89-.84-.69,.07-1.29,1.17-1.41,1.78,0,.04-.05,.48-.07,.73-.1-.22-.2-.43-.3-.65-.31-.62-.64-1.24-.97-1.86-.1-.19-.2-.38-.3-.57,.09-.02,1.19-.28,1.6-.59,.37-.28,.76-.74,.75-1.23,0-.48-.39-.89-.89-.84-.69,.07-1.29,1.17-1.41,1.78,0,.05-.07,.69-.07,.85-.22-.42-.43-.84-.62-1.26-.27-.58-.5-1.17-.68-1.75,.04,0,1.19-.27,1.61-.59,.37-.28,.76-.74,.75-1.23,0-.48-.39-.89-.89-.84-.69,.07-1.29,1.17-1.41,1.78,0,.05-.07,.74-.07,.86-.01-.03-.03-.07-.04-.1-.18-.62-.29-1.25-.35-1.85-.04-.34-.06-.68-.07-1,.22-.03,1.22-.16,1.63-.41,.4-.24,.83-.65,.88-1.14,.05-.48-.29-.93-.79-.93-.69,0-1.41,1.02-1.6,1.61-.01,.03-.08,.37-.13,.62,0-.15,0-.3,0-.44,0-.52,.03-1,.07-1.43,.02-.24,.04-.46,.07-.66,.2-.14,1-.7,1.25-1.11,.24-.39,.44-.96,.26-1.42-.18-.45-.69-.69-1.13-.46-.62,.32-.78,1.56-.68,2.17,0,.05,.24,.86,.25,.86h.01c-.03,.19-.05,.4-.08,.63-.04,.43-.09,.91-.1,1.43-.01,.53-.01,1.1,.04,1.7,.05,.6,.14,1.24,.31,1.88v.02c-.1-.17-.42-.64-.45-.67-.41-.47-1.46-1.14-2.1-.86-.46,.2-.59,.75-.36,1.17,.24,.43,.8,.64,1.26,.71Z" style="fill:#263238;"></path><path d="M226.55,331.44s.22-.81,.23-.86c.09-.61-.11-1.85-.73-2.15-.45-.22-.95,.04-1.12,.49-.17,.46,.04,1.02,.3,1.41,.29,.46,1.33,1.1,1.33,1.1Z" style="fill:#263238;"></path></g><g><path d="M228.21,334.85c.3,.13,1.02,.11,1.03,.11,0,0-.16-.48-.17-.5-.16-.33-.66-.89-1.07-.83-.3,.04-.46,.34-.39,.61,.07,.28,.36,.5,.61,.61Z" style="fill:#263238;"></path><path d="M228.46,336.96c.31,.05,.96-.14,1.01-.16,.1,.36,.24,.73,.39,1.09,.09,.21,.19,.41,.28,.62-.06-.09-.11-.16-.12-.17-.24-.28-.87-.68-1.26-.52-.27,.12-.36,.45-.22,.7,.14,.26,.48,.38,.75,.42,.28,.04,.83-.11,.98-.15,.04,.08,.08,.16,.12,.23,.19,.37,.38,.75,.55,1.12,.06,.13,.12,.26,.17,.39-.05-.08-.1-.14-.11-.15-.24-.28-.87-.68-1.26-.52-.27,.12-.36,.45-.22,.7,.14,.26,.48,.38,.75,.42,.26,.04,.78-.09,.95-.14,.05,.14,.11,.27,.15,.41,.03,.09,.06,.18,.09,.27l.08,.28c.04,.18,.09,.36,.12,.53,.03,.12,.05,.24,.07,.35-.06-.13-.18-.38-.19-.4-.2-.31-.76-.8-1.16-.7-.29,.07-.42,.39-.32,.66,.1,.27,.41,.45,.68,.53,.29,.09,.94,0,1.02,0,.04,.19,.07,.38,.11,.56,.07,.39,.12,.74,.16,1.04h.27c-.05-.31-.11-.67-.19-1.09-.04-.2-.08-.4-.13-.62,.05-.02,.32-.13,.57-.27,.21,.23,.76,.5,.83,.53-.07,.18-.15,.36-.22,.52-.15,.35-.29,.65-.42,.91h.29c.11-.24,.23-.51,.35-.82,.08-.18,.15-.38,.23-.59,.08,.02,.72,.15,1.01,.08,.27-.06,.6-.21,.72-.48,.12-.26,.01-.58-.27-.68-.39-.13-.99,.31-1.21,.61-.01,.02-.13,.22-.21,.36,.03-.08,.06-.16,.09-.25,.06-.17,.12-.34,.18-.53l.08-.27c.03-.09,.05-.19,.07-.29,.05-.22,.1-.45,.13-.69,.15,.05,.68,.24,.96,.22,.28-.02,.62-.12,.78-.37,.16-.24,.1-.57-.16-.71-.37-.19-1.03,.16-1.29,.42-.02,.02-.18,.22-.27,.34,.02-.14,.04-.28,.06-.42,.05-.41,.09-.83,.13-1.24,.01-.13,.03-.25,.04-.38,.05,.02,.68,.25,.99,.23,.28-.02,.62-.12,.78-.37,.16-.24,.1-.57-.16-.71-.37-.19-1.03,.16-1.29,.42-.02,.02-.26,.32-.32,.4,.03-.28,.06-.56,.1-.83,.06-.38,.14-.74,.24-1.09,.02,0,.68,.26,1,.24,.28-.02,.62-.12,.78-.37,.16-.24,.1-.57-.16-.71-.37-.19-1.03,.16-1.29,.42-.02,.02-.28,.34-.32,.41,0-.02,.01-.04,.02-.06,.11-.37,.27-.72,.43-1.04,.09-.18,.19-.36,.3-.52,.12,.06,.66,.32,.95,.33,.28,.01,.63-.05,.82-.28,.18-.22,.16-.56-.09-.72-.35-.23-1.04,.05-1.33,.28-.02,.01-.16,.16-.27,.26,.05-.07,.09-.15,.14-.22,.17-.26,.35-.49,.5-.69,.09-.11,.17-.21,.25-.31,.15,0,.73-.02,.99-.14,.25-.12,.54-.34,.6-.62,.06-.28-.11-.57-.41-.6-.41-.04-.9,.52-1.05,.86-.01,.03-.16,.51-.16,.51h0c-.08,.09-.16,.18-.25,.29-.16,.2-.34,.42-.52,.68-.18,.26-.37,.54-.54,.86-.17,.32-.34,.66-.46,1.04h0c0-.11,0-.45,0-.47-.05-.37-.36-1.05-.76-1.12-.29-.05-.54,.18-.57,.46-.02,.29,.19,.58,.39,.77,.23,.21,.88,.41,.93,.42-.11,.36-.2,.74-.27,1.13-.04,.22-.07,.45-.1,.67,0-.11,0-.2,0-.21-.05-.37-.36-1.05-.76-1.12-.29-.05-.54,.18-.57,.46-.02,.29,.19,.58,.39,.77,.21,.19,.76,.37,.9,.42-.01,.09-.02,.17-.03,.26-.05,.42-.1,.83-.16,1.24-.02,.14-.05,.28-.07,.42,0-.09,0-.17,0-.18-.05-.37-.36-1.05-.76-1.12-.29-.05-.54,.18-.57,.46-.02,.29,.19,.58,.39,.77,.2,.18,.7,.35,.87,.41-.03,.14-.06,.29-.1,.42-.03,.09-.05,.18-.08,.28l-.09,.27c-.06,.17-.13,.35-.19,.51-.04,.12-.09,.22-.13,.33,.02-.14,.06-.42,.06-.45,0-.25-.08-.65-.26-.93,0-.04,0-.07,0-.11-.05-.28-.31-.49-.6-.42-.4,.11-.65,.81-.67,1.18,0,.02,.01,.26,.02,.41-.02-.09-.04-.17-.06-.26-.04-.18-.09-.35-.14-.54l-.08-.27c-.03-.09-.06-.19-.1-.28-.08-.22-.17-.43-.27-.65,.16-.04,.7-.18,.92-.35,.22-.17,.45-.44,.45-.74,0-.29-.23-.53-.53-.5-.41,.04-.77,.7-.84,1.06,0,.02-.03,.29-.04,.44-.06-.13-.12-.26-.18-.39-.18-.37-.38-.74-.58-1.11-.06-.11-.12-.23-.18-.34,.06-.01,.71-.16,.96-.35,.22-.17,.45-.44,.45-.74,0-.29-.23-.53-.53-.5-.41,.04-.77,.7-.84,1.06,0,.03-.04,.41-.04,.51-.13-.25-.26-.5-.37-.75-.16-.35-.3-.7-.4-1.04,.03,0,.71-.16,.96-.36,.22-.17,.45-.44,.45-.74,0-.29-.23-.53-.53-.5-.41,.04-.77,.7-.84,1.06,0,.03-.04,.44-.04,.52,0-.02-.02-.04-.02-.06-.11-.37-.17-.75-.21-1.1-.02-.21-.03-.4-.04-.6,.13-.02,.73-.1,.97-.24,.24-.14,.5-.39,.53-.68,.03-.28-.17-.56-.47-.56-.41,0-.84,.61-.96,.96,0,.02-.05,.22-.08,.37,0-.09,0-.18,0-.26,0-.31,.02-.6,.04-.85,.01-.14,.03-.27,.04-.4,.12-.08,.6-.42,.75-.66,.14-.24,.26-.58,.15-.85-.11-.27-.41-.41-.67-.28-.37,.19-.46,.93-.4,1.3,0,.03,.14,.52,.15,.51h0c-.02,.11-.03,.24-.05,.37-.03,.25-.05,.54-.06,.86,0,.31,0,.66,.02,1.02,.03,.36,.08,.74,.19,1.12h0c-.07-.09-.26-.37-.27-.39-.24-.28-.87-.68-1.26-.52-.27,.12-.36,.45-.22,.7,.14,.26,.48,.38,.75,.42Z" style="fill:#263238;"></path><path d="M235.57,335.01s.13-.48,.14-.52c.05-.37-.07-1.1-.44-1.28-.27-.13-.57,.03-.67,.3-.1,.27,.03,.61,.18,.84,.18,.27,.79,.66,.79,.66Z" style="fill:#263238;"></path></g></g></g><g id="freepik--Character--inject-96"><g><path d="M216.47,140.65s-7.07,12.26-6.83,14.16c.24,1.9,38.24,41.33,38.24,41.33,0,0,2.85,8.08,2.85,11.16s0,8.08,3.33,9.26c3.33,1.19,8.08-5.46,7.84-11.16-.24-5.7-3.09-11.16-3.09-12.35s.71-5.94-1.19-9.26c-1.9-3.33-3.8-3.56-5.46-3.09l-1.66,.48s-4.75-3.8-7.84-9.5-7.13-13.3-7.13-13.3l4.34-4.79-23.4-12.93Z" style="fill:#263238; stroke: #263238; stroke-linecap: round; stroke-linejoin: round;"></path><g><path d="M251.81,107.41s-17.57,10.32-26.17,21.01c-8.6,10.7-9.17,12.23-9.17,12.23,0,0,11.84,9.93,19.87,12.03,8.02,2.1,7.07,1.53,7.07,1.53l27.13-22.73,4.58-.76s3.06,13.75,8.21,16.43c5.16,2.67,13.18,0,15.47-5.54,2.29-5.54,10.32-18.72,6.88-28.84-3.44-10.12-8.02-12.8-8.02-12.8l-45.85,7.45Z" style="fill:#828282; stroke: #263238; stroke-linecap: round; stroke-linejoin: round;"></path><path d="M251.04,110.28l10.89,16.62s-22.35-2.48-17.57-.96c4.78,1.53,16.81,3.82,16.81,3.82l-21.29,23.82c4.16,1.01,3.53,.63,3.53,.63l27.13-22.73,4.58-.76s1.07,4.79,3,9.27l.06-.1,2.2-9.36c1.29-5.48,3.33-10.76,6.07-15.67l2.23-4s-24.07,3.82-37.63-.57Z" style="fill:#263238; stroke: #263238; stroke-linecap: round; stroke-linejoin: round;"></path></g><path d="M257.81,53.98s-11.1,4.73-16.74,8.91-28.74,34.93-28.74,34.93c0,0-10.19,6.37-12.19,9.64-2,3.27-19.1,30.93-19.1,30.93l6.73,1.46s32.56-33.11,33.84-34.38,19.65-20.56,19.65-20.56c0,0-.36-1.27,5.09,4.73,5.46,6,4.73,19.47,4.73,19.47,0,0,8,11.1,23.47,8.73,15.46-2.36,21.83-13.83,21.83-13.83,0,0,6.55-33.47,4.18-41.48-2.36-8-12.31-9.74-21.62-9.78-9.31-.04-21.13,1.23-21.13,1.23Z" style="fill:#fff; stroke: #263238; stroke-linecap: round; stroke-linejoin: round;"></path><path d="M296.38,104.01s6.55-33.47,4.18-41.48c-2.36-8-12.31-9.74-21.62-9.78-9.31-.04-21.13,1.23-21.13,1.23,0,0-11.1,4.73-16.74,8.91-4.1,3.04-17.45,20.14-24.41,29.23l11.17,6.85c5.77-6.04,13.43-14.08,13.43-14.08,0,0-.36-1.27,5.09,4.73,5.46,6,4.73,19.47,4.73,19.47,0,0,8,11.1,23.47,8.73,15.46-2.36,21.83-13.83,21.83-13.83Z" style="fill:#31D158; stroke: #263238; stroke-linecap: round; stroke-linejoin: round;"></path><path d="M258.22,57.85l-16.97,27.06,7.1,6.49,4.25,17.21s1.13,5.85,13.8,8.28c10.81,2.07,16.56-2.53,16.56-2.53l5.98-26.25-5.43-14.47-1.14-16.92-24.15,1.14Z" style="fill:#263238; stroke: #263238; stroke-linecap: round; stroke-linejoin: round;"></path><g><path d="M256.35,55.89s2.59,9.39,3.81,12.12c1.23,2.72,5.58,8.58,8.03,9.67,2.45,1.09,5.58-1.5,6.81-3.13,1.23-1.63,5.17-6.94,5.99-9.53s2.31-10.07,2.31-10.07l-27.36-1.5,.41,2.45Z" style="fill:#fff; stroke: #263238; stroke-linecap: round; stroke-linejoin: round;"></path><path d="M258.9,63.08s3.46,3.27,5.28,4c1.82,.73,4.73-3.64,5.64-2.91s2.55,3.64,3.27,3.64,4-.18,5.46-2.55c1.46-2.37,3.82-8.55,3.82-8.55l-26.02-.83s1.1,5.74,2.56,7.2Z" style="fill:#31D158; stroke: #263238; stroke-linecap: round; stroke-linejoin: round;"></path><path d="M266.42,69.63s.54,2.04,2.45,1.91c1.91-.14,2.59-.82,2.99-1.5" style="fill: none; stroke: #263238; stroke-linecap: round; stroke-linejoin: round;"></path><path d="M265.06,71.95s4.08,2.18,7.9,.41" style="fill: none; stroke: #263238; stroke-linecap: round; stroke-linejoin: round;"></path><g><path d="M263.18,27.25s-4.28,1.8-7.43,6.98c-3.15,5.18-2.25,10.13-2.25,13.73s3.83,9.68,4.73,9.9c.9,.23,18,2.7,19.8,2.03,1.8-.68,8.33-6.98,9-9,.68-2.03,.45-5.18,.45-5.18,0,0,.68-8.33-2.25-12.83-2.93-4.5-13.73-11.25-22.05-5.63Z" style="fill:#fff; stroke: #263238; stroke-miterlimit: 10;"></path><path d="M281.94,46.22l-2.99,6.53s4.36-.14,5.45-2.99c1.09-2.86,1.5-4.22,1.5-4.22l-3.95,.68Z" style="fill:#263238; stroke: #263238; stroke-miterlimit: 10;"></path><path d="M257.98,50.85s-.14-5.04-.95-6.26c-.82-1.23-2.72-2.45-2.72-2.45,0,0,0,3.95,.68,5.31,.68,1.36,2.99,3.4,2.99,3.4Z" style="fill:#263238; stroke: #263238; stroke-miterlimit: 10;"></path><path d="M265.06,45.54l.14-8.03s-2.45,1.77-3.13,3.68c-.68,1.91-.41,3.13-.41,3.13l3.4,1.23Z" style="fill:#263238; stroke: #263238; stroke-miterlimit: 10;"></path><path d="M275.95,38.87l-1.5,8.03s3.54-1.77,3.95-3.27c.41-1.5-2.45-4.76-2.45-4.76Z" style="fill:#263238; stroke: #263238; stroke-miterlimit: 10;"></path><path d="M266.69,28.93l-2.31,5.17-1.63,1.23s1.91-5.17,3.95-6.4Z" style="fill:#263238; stroke: #263238; stroke-miterlimit: 10;"></path><path d="M277.85,29.61l-.27,4.49,2.04,3.27s.14-5.45-1.77-7.76Z" style="fill:#263238; stroke: #263238; stroke-miterlimit: 10;"></path><path d="M270.64,27.84l-.14,4.76h2.45l1.09-4.22s-1.5-.68-3.4-.54Z" style="fill:#263238; stroke: #263238; stroke-miterlimit: 10;"></path><polygon points="264.51 50.58 272.82 50.99 270.78 53.44 266.69 53.16 264.51 50.58" style="fill:#263238; stroke: #263238; stroke-miterlimit: 10;"></polygon></g></g><g><g><path d="M329.63,208.86c-15.92-24.84-36.23-35.6-45.36-24.04-9.13,11.56-3.63,41.07,12.3,65.91,15.92,24.84,36.23,35.6,45.36,24.04,9.13-11.56,3.63-41.07-12.3-65.91Zm7.32,56.19c-6.42,7.92-22.05-1.82-34.9-21.76-12.86-19.94-18.08-42.52-11.66-50.44,6.42-7.92,22.05,1.82,34.9,21.76,12.86,19.94,18.08,42.52,11.66,50.44Z" style="fill:#263238; stroke: #263238; stroke-miterlimit: 10;"></path><path d="M329.58,208.78c-15.23-23.71-34.32-34.47-42.63-24.03-8.31,10.43-2.7,38.11,12.53,61.82,15.23,23.71,34.32,34.47,42.63,24.03,8.31-10.43,2.7-38.11-12.53-61.82Zm7.37,56.27c-6.42,7.92-22.05-1.82-34.9-21.76-12.86-19.94-18.08-42.52-11.66-50.44,6.42-7.92,22.05,1.82,34.9,21.76,12.86,19.94,18.08,42.52,11.66,50.44Z" style="fill:#858585; stroke: #263238; stroke-miterlimit: 10;"></path><path d="M319.69,219.72c4.77,7.4,6.71,15.79,4.33,18.73-2.38,2.94-8.19-.68-12.96-8.08-4.77-7.4-6.71-15.79-4.33-18.73,2.38-2.94,8.19,.68,12.96,8.08Z" style="fill:#fff; stroke: #263238; stroke-miterlimit: 10;"></path><path d="M327.87,213.31c-13.25-20.23-29.41-30.08-36.08-22.01-.13,.16-.25,.33-.37,.5,6.94-5.88,21.66,3.85,33.88,22.8,12.86,19.94,18.08,42.52,11.66,50.44-.9,1.12-2,1.87-3.23,2.3,2.43-.03,4.51-.92,6.06-2.81,6.67-8.07,1.34-31.01-11.91-51.24Z" style="fill:#263238; stroke: #263238; stroke-miterlimit: 10;"></path></g><path d="M296.35,198.75l-18.53-7.13-9.98-34.2-4.28,2.38,4.51,19.71-46.31-41.33,.24,15.91s39.9,63.18,45.6,70.07c5.7,6.89,14.01,12.35,14.01,12.35l16.39-3.8,23.04-7.36,.95-1.9,2.85,.48v-2.14l-28.5-23.04Zm-9.03,24.94l-1.9-.71c-1.9-.71-7.84-5.23-7.84-5.23l-34.44-52.01s30.88,34.44,31.83,35.15c.95,.71,15.2-.24,15.2-.24l25.65,20.9-28.5,2.14Z" style="fill:#858585; stroke: #263238; stroke-miterlimit: 10;"></path><g><polygon points="290.25 200.71 315.83 221.55 319.39 221.31 294.45 200.65 290.25 200.71" style="fill:#263238; stroke: #263238; stroke-miterlimit: 10;"></polygon><path d="M274.97,200.88c.77,.58,10.2,.07,13.81-.15l-9.77,.15-7.84-7.6-1.66-6.89-33.73-31.35,7.36,10.69s30.88,34.44,31.83,35.15Z" style="fill:#263238; stroke: #263238; stroke-miterlimit: 10;"></path></g><path d="M274.74,220.84l-50.58-80.53-2.38-2.12,.24,15.91s39.9,63.18,45.6,70.07c5.7,6.89,14.01,12.35,14.01,12.35l16.39-3.8-12.35-1.42-10.93-10.45Z" style="fill:#263238; stroke: #263238; stroke-miterlimit: 10;"></path><path d="M222.48,230.69c-1,0-1.87-.75-2-1.77l-7.9-63.62c-.14-1.11,.65-2.11,1.75-2.25,1.11-.13,2.11,.65,2.25,1.76l7.9,63.62c.14,1.11-.65,2.11-1.75,2.25-.08,.01-.17,.02-.25,.02Z" style="fill:#fff; stroke: #263238; stroke-miterlimit: 10;"></path><g><path d="M226.46,225.95c1.18,1.78,1.36,3.67,.4,4.22-.96,.55-2.68-.44-3.86-2.22-1.18-1.78-1.36-3.67-.4-4.22,.96-.55,2.68,.44,3.86,2.22Z" style="fill:#263238; stroke: #263238; stroke-miterlimit: 10;"></path><polygon points="222.6 223.73 225.47 222.21 229.73 228.66 226.86 230.17 222.6 223.73" style="fill:#263238; stroke: #263238; stroke-miterlimit: 10;"></polygon><path d="M229.33,224.44c1.18,1.78,1.36,3.67,.4,4.22-.96,.55-2.68-.44-3.86-2.22-1.18-1.78-1.36-3.67-.4-4.22,.96-.55,2.68,.44,3.86,2.22Z" style="fill:#263238; stroke: #263238; stroke-miterlimit: 10;"></path></g><path d="M216.09,175.99c-.35,0-.71-.09-1.03-.29-.96-.57-1.27-1.8-.7-2.76,.13-.22,3.28-5.43,8.66-6.32,3.21-.53,6.42,.56,9.54,3.24,.85,.73,.94,2,.22,2.85-.73,.85-2,.94-2.85,.22-2.17-1.86-4.26-2.63-6.24-2.32-3.52,.57-5.85,4.37-5.87,4.41-.38,.63-1.05,.98-1.73,.98Z" style="fill:#263238;"></path><g><path d="M257.27,204.5c-17.78-27.12-45.73-41.08-62.43-31.18-16.7,9.9-15.82,39.92,1.96,67.04,17.78,27.12,45.73,41.08,62.43,31.18s15.82-39.92-1.96-67.04Zm-3.1,56.63c-11.68,6.76-32.82-5.43-47.21-27.21-14.39-21.78-16.58-44.92-4.9-51.67,11.68-6.76,32.82,5.43,47.21,27.21,14.39,21.78,16.58,44.92,4.9,51.67Z" style="fill:#263238; stroke: #263238; stroke-miterlimit: 10;"></path><path d="M257.21,204.41c-17.02-25.89-43.13-39.64-58.3-30.72-15.18,8.92-13.68,37.14,3.34,63.03,17.02,25.89,43.13,39.64,58.3,30.72,15.18-8.92,13.68-37.14-3.34-63.03Zm-3.04,56.72c-11.68,6.76-32.82-5.43-47.21-27.21-14.39-21.78-16.58-44.92-4.9-51.67,11.68-6.76,32.82,5.43,47.21,27.21,14.39,21.78,16.58,44.92,4.9,51.67Z" style="fill:#858585; stroke: #263238; stroke-miterlimit: 10;"></path><path d="M239.53,213.58c5.34,8.09,6.16,16.68,1.82,19.19-4.34,2.51-12.19-2.02-17.53-10.1s-6.16-16.68-1.82-19.19,12.19,2.02,17.53,10.1Z" style="fill:#fff; stroke: #263238; stroke-miterlimit: 10;"></path><path d="M252.68,208.05c-14.83-22.36-36.61-34.86-48.64-27.93-1.59,.92-2.93,2.14-4.02,3.6,.63-.55,1.31-1.05,2.05-1.48,11.68-6.76,32.82,5.43,47.21,27.21,14.39,21.78,16.58,44.92,4.9,51.67-1.75,1.01-3.71,1.59-5.83,1.78,3.49,.29,6.68-.28,9.38-1.83,12.04-6.93,9.78-30.68-5.05-53.03Z" style="fill:#263238; stroke: #263238; stroke-miterlimit: 10;"></path></g><path d="M238.85,109.22c-.65-.91-1.91-1.11-2.82-.47l-45.13,32.3c-.91,.65-1.12,1.91-.47,2.82,.39,.55,1.01,.84,1.64,.84,.41,0,.82-.12,1.17-.38l14.94-10.7c.36,.37,.86,.61,1.41,.62l8.33,.19,.5,5.77c.09,1.05,.97,1.84,2.01,1.84,.06,0,.12,0,.18,0,1.11-.1,1.93-1.08,1.84-2.19l-.56-6.47,6.64-12.57c.31-.58,.29-1.24,.04-1.79l9.8-7.02c.91-.65,1.12-1.91,.47-2.82Zm-18.97,19.36c-.14-.02-.28-.02-.43-.01-.99,.09-1.75,.88-1.83,1.84l-4.76-.11,9.82-7.03-2.81,5.32Z" style="fill:#263238; stroke: #263238; stroke-miterlimit: 10;"></path><path d="M233.27,150.71c-.16-1.1-1.19-1.86-2.29-1.71l-6.29,.92-.88-10.17c-.16-1.85-1.76-3.22-3.64-3.06-1.85,.16-3.22,1.79-3.06,3.64l1.08,12.38c.02,.19,.06,.37,.1,.55l-5.69,7.16c-.34,.42-.49,.97-.42,1.51l.42,3.36c.13,1.02,1,1.77,2,1.77,.08,0,.17,0,.25-.02,1.11-.14,1.89-1.15,1.75-2.25l-.31-2.52,5.17-6.5s.06,0,.09,0c.1,0,.2,0,.3-.01,1.17-.1,2.14-.79,2.66-1.74l7.08-1.04c1.1-.16,1.87-1.19,1.71-2.29Z" style="fill:#263238; stroke: #263238; stroke-miterlimit: 10;"></path><path d="M241.01,110.71c-.82,0-1.63-.38-2.16-1.09-.89-1.19-.64-2.88,.55-3.77l18.53-13.78c1.19-.89,2.88-.64,3.77,.55,.89,1.19,.64,2.88-.55,3.77l-18.53,13.78c-.48,.36-1.05,.53-1.6,.53Z" style="fill:#263238; stroke: #263238; stroke-miterlimit: 10;"></path><path d="M184.72,149.66c-.87,0-1.72-.42-2.24-1.2-.82-1.24-.49-2.91,.75-3.73l4.27-2.85c1.24-.82,2.91-.49,3.73,.75,.82,1.24,.49,2.91-.75,3.73l-4.27,2.85c-.46,.31-.98,.45-1.49,.45Z" style="fill:#263238; stroke: #263238; stroke-miterlimit: 10;"></path><g><path d="M237.61,219.47c1.18,1.78,1.36,3.67,.4,4.22-.96,.55-2.68-.44-3.86-2.22-1.18-1.78-1.36-3.67-.4-4.22,.96-.55,2.68,.44,3.86,2.22Z" style="fill:#263238; stroke: #263238; stroke-miterlimit: 10;"></path><polygon points="233.75 217.24 236.62 215.73 240.88 222.18 238.01 223.69 233.75 217.24" style="fill:#263238; stroke: #263238; stroke-miterlimit: 10;"></polygon><path d="M240.48,217.96c1.18,1.78,1.36,3.67,.4,4.22-.96,.55-2.68-.44-3.86-2.22-1.18-1.78-1.36-3.67-.4-4.22,.96-.55,2.68,.44,3.86,2.22Z" style="fill:#263238; stroke: #263238; stroke-miterlimit: 10;"></path></g><path d="M239.82,221.9c-1,0-1.87-.75-2-1.77l-8.55-68.88c-.14-1.11,.65-2.11,1.75-2.25,1.11-.14,2.11,.65,2.25,1.75l8.55,68.88c.14,1.11-.65,2.11-1.75,2.25-.08,.01-.17,.02-.25,.02Z" style="fill:#fff; stroke: #263238; stroke-miterlimit: 10;"></path><path d="M271.89,148.16s-4.75,1.19-8.79,.71c-4.04-.48-9.03-2.14-9.5,.24s5.94,6.65,5.94,6.65c0,0,0,4.28,1.19,4.99,1.19,.71,7.84-3.8,9.03-4.04,1.19-.24,10.93-3.33,10.93-5.94s-4.75-3.33-8.79-2.61Z" style="fill:#263238; stroke: #263238; stroke-miterlimit: 10;"></path></g><g><path d="M188.81,138.64s-2.77-1.79-4.24-2.12c-1.47-.33-2.61-.16-2.61-.16,0,0-7.98,8.15-7.82,9.61,.16,1.47,.98,7.01,1.79,7.82,.81,.81,4.07,3.1,5.05,3.1s3.91-2.44,3.91-2.44c0,0-.81-10.1,.16-10.75s4.24-1.3,4.24-1.3c0,0,.65-2.12-.49-3.75Z" style="fill:#31D158; stroke: #263238; stroke-linecap: round; stroke-linejoin: round;"></path><path d="M180.28,144.02s-.32,5.92,0,6.88c.32,.96,3.52,4.48,3.52,4.48" style="fill: none; stroke: #263238; stroke-linecap: round; stroke-linejoin: round;"></path><path d="M177.24,144.5s0,6.08,.48,7.04c.48,.96,4,4.16,4,4.16" style="fill: none; stroke: #263238; stroke-linecap: round; stroke-linejoin: round;"></path><polyline points="175.48 146.43 175.96 152.35 177.08 154.27" style="fill: none; stroke: #263238; stroke-linecap: round; stroke-linejoin: round;"></polyline></g><g><g><path d="M261.81,91.28s-14.01,.36-14.74,.91c-.73,.55-6.55,8-6.73,9.28s-.55,5.46,.73,5.46,2.37-4.55,2.37-4.55c0,0,2.18-1.46,2.55-2,.36-.55,1.27,4.37,2.36,4.91,1.09,.55,4,1.27,4.37,.73,.36-.55,2.91-2,3.64-2.73s1.46-2.55,1.46-2.55l4,.73s2.18-6.91,0-10.19Z" style="fill:#31D158; stroke: #263238; stroke-linecap: round; stroke-linejoin: round;"></path><polygon points="258.8 99.36 257.81 100.74 261.81 101.47 263.43 98.99 258.8 99.36" style="fill:#263238; stroke: #263238; stroke-linecap: round; stroke-linejoin: round;"></polygon><line x1="246.3" y1="95.32" x2="245.99" y2="100.38" style="fill: none; stroke: #263238; stroke-linecap: round; stroke-linejoin: round;"></line><path d="M249.14,99.9s1.11,3.95,4.58,4.74" style="fill: none; stroke: #263238; stroke-linecap: round; stroke-linejoin: round;"></path><path d="M252.15,98.16s1.36,3.86,4.43,4.27" style="fill: none; stroke: #263238; stroke-linecap: round; stroke-linejoin: round;"></path></g><path d="M289.1,81.82l-4,19.47-23.29-10.01s.73,6.91,0,10.19c0,0,26.56,20.19,28.93,20.01,2.37-.18,3.82-2.73,4-3.64s7.1-12.01,7.64-21.1,.91-15.65,.91-15.65c0,0,4.18-11.1,0-18.01-4.18-6.91-10.73-6.19-10.73-6.19" style="fill:#31D158; stroke: #263238; stroke-linecap: round; stroke-linejoin: round;"></path><path d="M286.36,95.17l-1.26,6.11-23.29-10.01s.73,6.91,0,10.19c0,0,26.56,20.19,28.93,20.01,2.36-.18,3.82-2.73,4-3.64,.18-.9,7-11.87,7.62-20.93l-16.01-1.73Z" style="fill:#fff; stroke: #263238; stroke-linecap: round; stroke-linejoin: round;"></path><line x1="285.1" y1="101.29" x2="293.1" y2="104.65" style="fill: none; stroke: #263238; stroke-linecap: round; stroke-linejoin: round;"></line><path d="M265.64,95.37c0,2.09-2.12,3.79-4.74,3.79s-4.74-1.7-4.74-3.79,2.12-3.79,4.74-3.79,4.74,1.7,4.74,3.79Z" style="fill:#263238; stroke: #263238; stroke-linecap: round; stroke-linejoin: round;"></path><path d="M264.13,94.43c0,1.31-1.31,2.38-2.93,2.38s-2.93-1.06-2.93-2.38,1.31-2.38,2.93-2.38,2.93,1.06,2.93,2.38Z" style="fill:#fff; stroke: #263238; stroke-linecap: round; stroke-linejoin: round;"></path></g><g><path d="M300.71,136.26s-2.87-4.97-8.98-4.97-13.56,6.11-13.56,8.6,6.3,16.43,6.3,17,.96,16.24,3.06,21.39c2.1,5.16,7.07,31.71,7.07,31.71,0,0-1.34,19.1-2.29,22.92-.96,3.82-1.72,6.69-.38,7.26,1.34,.57,7.07,.96,12.42-1.72,5.35-2.67,5.73-9.36,5.35-12.23-.38-2.87-4.2-13.75-4.78-17.19s5.35-29.42,1.34-40.5c-4.01-11.08-6.69-16.81-6.69-16.81l1.15-15.47Z" style="fill:#fff; stroke: #263238; stroke-linecap: round; stroke-linejoin: round;"></path><path d="M291.92,240.17c1.34,.57,7.07,.96,12.42-1.72,5.35-2.67,5.73-9.36,5.35-12.23-.38-2.87-4.2-13.75-4.78-17.19-.31-1.84,1.25-10.13,2.14-19.14l-16.07,2.06c1.86,8.68,3.61,18.04,3.61,18.04,0,0-1.34,19.1-2.29,22.92-.96,3.82-1.72,6.69-.38,7.26Z" style="fill:#263238; stroke: #263238; stroke-linecap: round; stroke-linejoin: round;"></path><path d="M309.69,226.23c-.28-2.14-2.48-8.73-3.82-13.37l-2.87,1.53-2.29-.57c-2.29-.57-5.73,1.91-5.73,1.91l-.87,.64c-.48,5.92-1.22,14.18-1.81,16.55-.96,3.82-1.72,6.69-.38,7.26,1.34,.57,7.07,.96,12.42-1.72,5.35-2.67,5.73-9.36,5.35-12.23Z" style="fill:#31D158; stroke: #263238; stroke-linecap: round; stroke-linejoin: round;"></path></g></g><path d="M277.14,370.7c-.32-.06-.66-.12-.99-.18-.69-.12-1.37-.25-2.09-.36-.65-.11-1.33-.2-2.01-.3-.48-.07-.96-.14-1.45-.2-.85-.11-1.74-.21-2.63-.31-.39-.04-.76-.09-1.15-.13-.96-.1-1.95-.18-2.95-.26-.36-.03-.72-.06-1.09-.09-1.03-.07-2.08-.13-3.14-.19-.36-.02-.72-.05-1.09-.06-1.17-.05-2.37-.09-3.57-.12-.26,0-.5-.02-.76-.03h-.08c-1.46-.03-2.91-.04-4.34-.03-.33,0-.65,.01-.98,.02-1.12,.01-2.23,.03-3.33,.06-.39,.01-.77,.03-1.16,.05-1.02,.04-2.04,.08-3.04,.13-.38,.02-.76,.05-1.14,.08-.98,.06-1.96,.13-2.91,.21-.42,.03-.82,.08-1.24,.12-.87,.08-1.74,.16-2.59,.25-.54,.06-1.05,.13-1.58,.19-.66,.08-1.31,.16-1.95,.25-.78,.11-1.54,.23-2.29,.35-.29,.05-.58,.09-.87,.14-.35,.06-.71,.11-1.05,.17-2.59-1.69-5.52-3.16-8.58-3.65-8.3-1.32-13.06-1.79-13.06-1.79l-5.69-3.85c-.35-1.67-.87-3.9-2.59-5.61l-44.96,14.99-6.92,2.51c-2.77,2.94-7.62,8.48-8.89,12.5-.27,.84-.49,1.56-.67,2.2l-.56-5.11c-.03-.25-.34-.41-.8-.46l4.47-5.23c.31-.36,.15-.66-.33-.79,.62-.06,1.26-.23,1.78-.47,.44-.2,.8-.44,1.02-.7l.57-.69-4.8,1.74c.1,.04,.22,.08,.35,.1-.8,.11-1.62,.44-1.96,.84l-20.57,24.07c-.13,.15-.15,.28-.13,.4-.28,.06-.55,.13-.81,.22-.29-.21-.82-.45-1.74-.47,1.79-3.44,9.99-19.21,10.36-19.9l-14.5,5.56c-.82,1.06-1.46,2.05-1.48,2.58-.05,1.27-.5,10.47-.65,13.5-.17,.08-.26,.13-.26,.13,0,0-2.51,4.86-1.7,5.17,.81,.31,4.02,1.39,5.04,1.3,1.02-.09,4.65-.68,5.42-1.03,.46-.21,1.05-.86,1.46-1.37h.01c.28-.36,.48-.63,.48-.63,0,0-1.22-.51-2.44-1.09,.03-.01,.06-.02,.08-.03,.4-.18,.74-.4,.96-.64l2.05-2.23c.3-.33,.31-.63,.09-.84,.13-.04,.28-.08,.4-.13,.32-.15,.59-.32,.75-.51l6.81-7.97c.45-.03,.96-.15,1.4-.35l6.65-2.92,1.65,.67c-.21,.33-.19,.64,.08,.88-.05,.42-.02,.51-.02,.51,0,0,.12,5.55,1.19,5.94,.2,.07,2.13,0,5.1-.18l-.16,.52c-.07,.23,.06,.41,.36,.52l1.89,.68h0l3.05,1.11c-5.95,2.11-10.62,4.56-13.31,7.2-8.56,8.4,6.05,15.53,32.64,15.92,26.59,.39,55.09-6.1,63.65-14.49,5.78-5.66,.99-10.75-10.88-13.58l-.07-.02c-.4-.09-.81-.19-1.22-.28-.24-.05-.48-.1-.72-.15-.25-.05-.51-.1-.77-.15-.4-.08-.8-.15-1.21-.22-.15-.03-.3-.05-.45-.08-.44-.08-.89-.15-1.35-.22,.51,0,.97-.02,1.29-.03,7.69-.32,16.77-1.93,16.77-1.93l4.42-2.68c4.32,.48,8.99,.79,13.95,.89,24.07,.49,45.06-4.07,46.89-10.19,1.17-3.92-5.84-7.52-17.35-9.74Zm-146.95,17.09c-.74,.37-.97,.84-.59,1.11l-3.8,1.67,4.48-5.24,.25,2.32c-.12,.05-.23,.09-.34,.15Zm85.69-9.31c.04-.13,.15-.26,.22-.39,.26,.07,.52,.14,.78,.21,.12,.03,.25,.07,.37,.1,.2,.06,.4,.11,.6,.17,.13,.03,.25,.07,.37,.1,.19,.05,.39,.11,.58,.16,.12,.03,.24,.07,.36,.1l-3.18,.86c-.19-.43-.26-.87-.12-1.32Zm-58,8.25h0c.14-.05,.27-.09,.4-.14,.1-.03,.21-.07,.3-.1,.14-.05,.26-.09,.38-.13,.07-.02,.13-.05,.2-.07,.12-.04,.23-.08,.33-.11l.15-.05c.1-.03,.2-.07,.29-.1l.05-.02c.19-.06,.34-.12,.47-.16l.05-.02c.05-.02,.09-.04,.14-.05l.06-.02s.07-.03,.1-.04l.04-.02,.06-.03h.02c.05-.03,.07-.05,.07-.05h-.05l10.83-15.29,3.26-1.82s.05,.01,.12,.03h.06c.07,.03,.17,.06,.29,.09,.05,.01,.1,.02,.16,.04,.12,.03,.25,.06,.4,.09,.07,.02,.14,.03,.22,.05,.17,.04,.35,.08,.55,.12,.08,.02,.16,.03,.24,.05,.25,.05,.51,.1,.8,.16,.05,0,.09,.02,.15,.03,.34,.07,.7,.13,1.08,.2,.05,0,.1,.02,.15,.02,.32,.05,.65,.11,1,.16,.12,.02,.24,.03,.36,.05,.28,.04,.57,.08,.86,.11,.07,0,.14,.02,.21,.03h0c.05,0,.11,0,.16,.02,1.71,.63,12.43,1.77,12.69,1.91,.27,.14,8.28,3.68,12.33,4.22,.54,.07,1.3,.22,2.21,.42-.89,.75-1.5,1.54-1.75,2.36-.33,1.11,0,2.19,.89,3.22l-2.81,.76-23.6-4.9c.46-.42,.83-.75,1.04-.88,.83-.48,7.06-4.71,5.85-5.36-1.21-.65-5.28,.87-8.14,2.48,0,0-3.19,1.99-6.59,3.3-3.4,1.32-8.1,2.68-7.37,3.44,.73,.76,7.76-.46,7.76-.46,0,0,1.98,1.06,3.25,.81,.45-.09,1.15-.59,1.89-1.23l12.61,3.26-34.36,3.85,.1-.24h0Zm-4.89,10.01c2.7-.19,5.5-.39,8.27-.6-3.64,.7-7.07,1.52-10.29,2.42,.36-.56,.96-1.22,2.02-1.82Zm13.96,8.72c-.1,.1-.18,.2-.25,.3l-12.11-4.39c4.88-1.31,10.65-2.38,16.85-3.1l9.83,3.57c-6.5,.4-12.46,1.84-14.32,3.63Zm10.64,4.11l-.11,.1-.28-.1s.06,0,.09,0c.1,0,.21,0,.31,0Zm-32.84-11.77h0l-1.16-.42c1.69-.11,3.55-.23,5.51-.37-.78,.63-1.31,1.23-1.65,1.77l-2.7-.98Zm74.29,10.5c-.34,.32-.74,.64-1.17,.96-.09,.07-.19,.14-.29,.21-.42,.29-.88,.58-1.38,.86-.15,.08-.31,.17-.46,.25-8.76,4.69-27.95,8.03-46.52,7.79-20.09-.26-32.29-4.63-28.76-9.97,.24-.36,.55-.72,.93-1.09,1.8-1.73,5.05-3.34,9.27-4.74l26.9,9.76c.57,.21,1.61,.08,2.4-.27,.07-.03,.13-.06,.19-.09,.55-.29,.79-.63,.69-.89,1.08-.14,2-.39,2.33-.71l1.27-1.14c5.28-.6,9.78-1.86,11.35-3.37,1.94-1.86-1.22-3.48-7.21-3.96l-11.44-4.15c4.61-.36,9.36-.55,14.07-.48,.96,.01,1.88,.05,2.8,.08,.97,.27,2.11,.38,3.4,.16,17.54,1.07,27.08,5.59,21.62,10.83Zm-1.68-19.09l-27.78-.34c-.87-.44-2.09-.89-3.71-.97-2.56-.12-4.1,.3-5.18,.86l-14.6-.18s40.3-2.45,41.38-2.61c.06,0,.16-.04,.29-.08,.04-.01,.09-.03,.13-.05,.1-.03,.2-.07,.32-.12,.06-.02,.13-.05,.19-.08,.13-.05,.27-.11,.43-.18,.07-.03,.14-.06,.22-.09,.2-.09,.42-.18,.65-.29l.09-.04c.27-.12,.55-.25,.85-.39,.08-.04,.17-.08,.26-.12,.18-.08,.36-.16,.54-.25,2.85,1.53,7,2.87,12.15,3.93-2.66,.48-6.25,1.01-6.25,1.01Zm13.93-3.74c-6.48-.98-11.38-2.42-13.8-4.08h.02l.16-.08c.22-.11,.43-.21,.62-.3h0c.65-.32,1.06-.52,1.06-.52l3.62-.48h0c.18,.05,.37,.11,.54,.16l.22,.06c.18,.05,.35,.1,.52,.15l.18,.05c.17,.05,.34,.1,.5,.15l.17,.05c.2,.06,.38,.11,.56,.16h.03c.17,.06,.33,.1,.47,.15h.05l.36,.12,.09,.03,.13,.04c.14,.04,.24,.07,.3,.09l.06,.02s1.14,.76,2.6,1.77c.26,.18,.53,.37,.81,.56,.08,.06,.16,.11,.24,.17,.21,.15,.43,.3,.65,.46,.1,.07,.19,.14,.29,.21,.21,.15,.43,.3,.64,.46l.06,.05-1.16,.58Zm54.77-5.66c-.09,.29-.27,.57-.5,.85-.05,.06-.13,.12-.19,.18-.21,.21-.44,.43-.72,.63-4.62,3.37-19.44,5.68-36.18,5.36-1.06-.02-2.09-.05-3.12-.09,.95-.58,1.88-1.23,2.68-1.92,.37-.32,.65-.63,.86-.93,.31-.44,.44-.86,.45-1.24,0-.26-.05-.5-.14-.72-.19-.45-.55-.84-.97-1.17-.11-.08-.21-.16-.33-.23h0l.23-.16c.47,.02,.96,.04,1.45,.05,7.2,.14,13.45-1.03,13.96-2.61,.42-1.3-3.21-2.48-8.54-2.92v-.08l2.45-.9-.99-.53-23,3.08c-.09-.07-.17-.13-.27-.21l-.09-.07c-.23-.18-.46-.37-.72-.58l-.05-.04c-.31-.26-.65-.54-1-.83-.23-.19-.47-.39-.71-.59-.08-.06-.16-.13-.24-.2-.28-.23-.57-.46-.87-.7-.06-.04-.11-.09-.17-.13-.04-.03-.09-.07-.13-.1,.17-.03,.34-.06,.52-.09,.45-.07,.91-.15,1.38-.22,.45-.07,.9-.13,1.36-.19,.47-.06,.94-.12,1.42-.18,.49-.06,1-.11,1.5-.16,.48-.05,.96-.1,1.45-.15,.54-.05,1.09-.09,1.64-.14,.49-.04,.97-.08,1.46-.11,.58-.04,1.18-.07,1.78-.11,.48-.03,.96-.06,1.45-.08,.64-.03,1.3-.05,1.95-.07,.46-.02,.92-.04,1.39-.05,.74-.02,1.5-.02,2.25-.03,.4,0,.79-.01,1.19-.02,1.14,0,2.28,0,3.44,.03,.02,0,.05,0,.07,0,10.9,.21,20.29,1.48,26.17,3.31,1.96,.61,3.53,1.28,4.64,2,.74,.48,1.27,.97,1.57,1.48,.3,.51,.38,1.03,.21,1.56Z" style="fill:#263238; stroke: #263238; stroke-linecap: round; stroke-linejoin: round;"></path></g></svg>
